<svg width="19" height="19" viewBox="0 0 19 19" fill="none" xmlns="http://www.w3.org/2000/svg">
    <path d="M17.6673 11.7102L16.1084 10.305L9.0937 3.98196C7.80089 2.82531 5.71405 2.8288 4.42608 3.98981C3.13812 5.15082 3.13425 7.03197 4.41737 8.19735L11.4318 14.5222C11.7187 14.781 12.184 14.781 12.4711 14.5222C12.758 14.2635 12.758 13.8441 12.4711 13.5854L5.45668 7.26048C4.73928 6.61379 4.73928 5.56551 5.45668 4.91882C6.17408 4.27214 7.33699 4.27214 8.05439 4.91882L15.0709 11.2418L16.6298 12.6469C17.9213 13.8116 17.9208 15.6994 16.629 16.8635C15.337 18.0275 13.2429 18.0272 11.9514 16.8626L10.6526 15.6914L3.37822 9.13407L2.85849 8.66571C1.04192 6.97699 1.06499 4.28668 2.91012 2.62328C4.75542 0.960015 7.7399 0.939215 9.61327 2.57673L17.4072 9.60257C17.5929 9.76984 17.8635 9.83515 18.117 9.77392C18.3707 9.71268 18.5688 9.53421 18.6368 9.30556C18.7047 9.0769 18.6321 8.83312 18.4465 8.66571L10.6526 1.64001C8.21171 -0.550229 4.26473 -0.546156 1.82951 1.64917C-0.605876 3.84436 -0.610394 7.4023 1.81934 9.60257L9.61327 16.6283L10.914 17.7995C12.7898 19.4236 15.7625 19.3965 17.6013 17.7384C19.4403 16.0803 19.4695 13.4007 17.6673 11.7102Z" fill="#6B6B6B"/>
</svg>
