<svg xmlns="http://www.w3.org/2000/svg" display="none">

    <symbol id="logo" viewBox="0 0 44 33">
        <g>
            <path d="M10.6319 15.557C14.1348 15.557 16.8273 18.5316 16.8273 21.9969V24.0162C14.2018 23.4453 11.7385 25.6665 12.0006 28.3842H10.6319C7.13831 28.3842 4.43674 25.4675 4.43674 21.9969C4.43674 18.5318 7.12421 15.557 10.6319 15.557ZM0 21.9969C0 27.8733 4.81701 32.616 10.6319 32.616H21.2904V21.9969C21.2904 16.1198 16.4547 11.3257 10.6319 11.3257C4.80634 11.3257 0 16.1248 0 21.9969Z"
                  fill="white"/>
            <path d="M27.194 20.4328C29.863 20.6303 31.9263 18.1188 31.4023 15.5583H33.3808C36.8686 15.5583 39.5686 18.4748 39.5686 21.9445C39.5686 25.4094 36.8796 28.3845 33.3808 28.3845C29.8825 28.3845 27.194 25.4085 27.194 21.9445V20.4328V20.4328ZM33.3556 4.48906H35.3739C37.6901 4.48906 39.5433 2.58241 39.5433 0.257324H33.3556C27.521 0.257324 22.7096 4.96417 22.7096 10.8755L22.7365 21.9446C22.7365 27.8194 27.5663 32.616 33.3808 32.616C39.1994 32.616 44 27.8164 44 21.9446C44 16.0672 39.1893 11.3274 33.3808 11.3274H27.1154C27.1154 7.6672 29.5421 4.48906 33.3556 4.48906H33.3556Z"
                  fill="white"/>
            <path d="M20.1755 12.9146C19.6873 11.0825 18.6708 9.3325 17.6414 7.74438C15.421 4.32038 12.5046 2.05557 7.76624 1.42248C7.36258 1.36882 6.94569 1.3266 6.51495 1.29659C6.87363 1.24525 7.6197 1.29324 7.76916 1.3057C14.5094 1.8626 19.3569 6.23588 20.4725 12.9146C20.4932 11.8087 20.642 10.789 20.2311 8.51892C19.8199 6.24938 16.9455 2.53773 13.8191 1.27045C9.84057 -0.342273 5.24173 -0.276488 3.97212 0.916671C6.4483 2.45226 7.33016 4.94477 7.97193 7.24828C8.26895 8.31219 9.29924 8.48615 10.7253 8.58926C15.2644 8.91647 17.243 9.73168 20.1753 12.9146L20.1755 12.9146Z"
                  fill="white"/>

        </g>
    </symbol>

    <symbol id="pig" viewBox="0 0 40 40">
        <g>
            <g clip-path="url(#clip0)">
                <path d="M30.6667 7.00004H17.32C14.3903 6.99353 11.527 7.8708 9.10383 9.51729C8.57584 9.17842 7.96093 8.99873 7.33333 9.00004H1.99999C1.71288 9.00004 1.45833 9.18363 1.36751 9.45576C1.27669 9.72822 1.37044 10.028 1.59993 10.2002L5.43131 13.0782C4.96744 13.7201 4.55728 14.3994 4.20475 15.1088L2.2552 19H0.666659C0.298495 19 -7.62939e-06 19.2985 -7.62939e-06 19.6667V22.3334C0.00227102 24.1735 1.49316 25.6644 3.33333 25.6667H9.99999V27.5336L8.05403 32.0739C7.96711 32.2796 7.98892 32.515 8.1123 32.7012C8.23534 32.8874 8.44335 32.9997 8.66666 33H12C12.2152 33 12.417 32.8959 12.542 32.7207L15.8753 28.0541C15.9564 27.9411 16 27.8057 16 27.6667V26.6094L17.9033 28.5134L16.7034 32.1227C16.6357 32.3255 16.6696 32.5485 16.7943 32.7224C16.9189 32.8959 17.1195 32.9994 17.3333 33H20C20.2539 33.0013 20.4866 32.8584 20.5999 32.6315L22.5999 28.6315C22.7018 28.4274 22.6924 28.1856 22.5745 27.9899L21.1774 25.6667H23.1195L27.2741 28.6341L26.6741 32.2233C26.6416 32.417 26.6963 32.6153 26.8232 32.765C26.9505 32.9144 27.137 33.0007 27.3333 33H30C30.2978 33.0004 30.5596 32.8031 30.6413 32.5166L31.9746 27.85C32.0319 27.6494 31.9919 27.4336 31.8665 27.2666L30.6667 25.6667C30.8665 25.6667 31.0618 25.6573 31.2399 25.6449L34 27.3701V32.3334C34 32.7015 34.2985 33 34.6667 33H37.3333C37.6113 33.0004 37.8603 32.8278 37.958 32.5674L39.958 27.2341C39.986 27.1592 40 27.0801 40 27V16.3334C39.9945 11.181 35.819 7.00557 30.6667 7.00004ZM21.2399 28.3627L19.5879 31.6667H18.2588L19.2988 28.544C19.3786 28.3047 19.3164 28.0407 19.138 27.862L16.9427 25.6667H19.6227L21.2399 28.3627ZM30.5999 27.8002L29.4974 31.6667H28.1208L28.654 28.4434C28.6969 28.1927 28.5934 27.9395 28.3874 27.7907L25.4134 25.6667H29L30.5999 27.8002ZM36.8714 31.6667H35.3333V27C35.3333 26.7702 35.2148 26.5567 35.0199 26.4346L32.3532 24.7679L30 23.2976V21H28.6667V23.6667C28.6667 23.8965 28.7851 24.1104 28.9801 24.2321L29.1419 24.3334H17.1914L18.5915 23.1813C18.7451 23.0547 18.834 22.8659 18.834 22.6667V21H17.5006V22.3519L14.9101 24.4854L14.9141 24.4899C14.8284 24.5573 14.7614 24.6449 14.7181 24.7448C14.6865 24.8262 14.6712 24.9128 14.6732 25H14.6667V27.4535L11.6566 31.6667H9.67805L11.278 27.9294C11.3141 27.8467 11.333 27.7572 11.3333 27.6667V25C11.3333 24.6319 11.0348 24.3334 10.6667 24.3334H3.33333C2.22883 24.3334 1.33333 23.4379 1.33333 22.3334V20.3334H2.66666C2.91926 20.3337 3.15006 20.1911 3.26334 19.9655L5.3968 15.7028C5.80989 14.8721 6.30956 14.0873 6.88736 13.3614C6.99902 13.2204 7.04947 13.0404 7.02636 12.862C7.00357 12.6836 6.90982 12.5222 6.76594 12.4141L3.99999 10.3334H7.33333C7.82096 10.3363 8.29101 10.517 8.65462 10.8422C8.88899 11.0466 9.23372 11.0619 9.48534 10.8786C11.7598 9.21879 14.5042 8.32718 17.32 8.33337H30.6667C34.9687 8.3402 38.4958 11.7468 38.652 16.0459L38.5312 16.1527C36.5837 17.8864 33.612 17.7627 31.8154 15.8728C31.5609 15.6065 31.139 15.597 30.8727 15.8513C30.6064 16.1058 30.597 16.528 30.8512 16.794C32.8932 18.9463 36.1813 19.3327 38.6667 17.7126V26.8793L36.8714 31.6667Z"
                      fill="white"/>
                <path d="M9.66666 17.6665C9.66666 18.2189 9.21907 18.6665 8.66666 18.6665C8.11425 18.6665 7.66666 18.2189 7.66666 17.6665C7.66666 17.1141 8.11425 16.6665 8.66666 16.6665C9.21907 16.6665 9.66666 17.1141 9.66666 17.6665Z"
                      fill="white"/>
            </g>
            <defs>
                <clipPath id="clip0">
                    <rect width="40" height="40" fill="white"/>
                </clipPath>
            </defs>

        </g>
    </symbol>

    <symbol id="law" viewBox="0 0 36 36">
        <g>
            <g clip-path="url(#clip0)">
                <path d="M34.2 2.99994H22.2L19.71 0.527941C18.9969 -0.148637 17.879 -0.148637 17.166 0.527941L14.694 2.99994H1.79998C0.805872 2.99994 -1.52588e-05 3.80583 -1.52588e-05 4.79994V28.2C-1.52588e-05 29.1941 0.805872 30 1.79998 30H12.396L10.956 34.8H9.59999C9.26861 34.8 8.99998 35.0686 8.99998 35.4C8.99998 35.7313 9.26861 36 9.59999 36H26.4C26.7314 36 27 35.7313 27 35.4C27 35.0686 26.7314 34.8 26.4 34.8H25.044L23.604 30H34.2C35.1941 30 36 29.1941 36 28.2V4.79994C36 3.80583 35.1941 2.99994 34.2 2.99994ZM18 1.37394C18.1126 1.26035 18.266 1.19646 18.426 1.19646C18.586 1.19646 18.7393 1.26035 18.852 1.37394L23.094 5.61594C23.2076 5.7286 23.2715 5.88196 23.2715 6.04194C23.2715 6.20193 23.2076 6.35528 23.094 6.46794L22.242 7.31394L19.242 4.34394C19.008 4.11131 18.63 4.11131 18.396 4.34394C18.2824 4.4566 18.2185 4.60996 18.2185 4.76994C18.2185 4.92993 18.2824 5.08328 18.396 5.19594L21.366 8.16595L17.124 12.4079L16.74 11.9999C16.506 11.7673 16.128 11.7673 15.894 11.9999C15.6614 12.234 15.6614 12.6119 15.894 12.8459L16.314 13.2719L15.468 14.1239C15.3553 14.2375 15.202 14.3014 15.042 14.3014C14.882 14.3014 14.7286 14.2375 14.616 14.1239L10.374 9.87595C10.1414 9.64192 10.1414 9.26397 10.374 9.02995L11.226 8.18395L14.196 11.1539C14.43 11.3866 14.808 11.3866 15.042 11.1539C15.1556 11.0413 15.2195 10.8879 15.2195 10.7279C15.2195 10.568 15.1556 10.4146 15.042 10.3019L12.072 7.30194L16.314 3.05994L16.74 3.48594C16.974 3.71858 17.352 3.71858 17.586 3.48594C17.6996 3.37328 17.7635 3.21992 17.7635 3.05994C17.7635 2.89996 17.6996 2.7466 17.586 2.63394L17.166 2.21394L18 1.37394ZM21.396 11.5739L20.544 12.4259L19.698 11.5739L20.544 10.7279L21.396 11.5739ZM23.514 11.9999L24.366 12.8459L21.816 15.3959L21 14.5259C20.7674 14.2919 20.7674 13.914 21 13.6799L22.68 11.9999C22.914 11.7673 23.292 11.7673 23.526 11.9999H23.514ZM30.972 19.428C31.2046 19.662 31.2046 20.0399 30.972 20.274L29.274 21.972C29.04 22.2046 28.662 22.2046 28.428 21.972L22.68 16.1999L25.2 13.6799L30.972 19.428ZM23.796 34.8H12.204L13.644 30H22.356L23.796 34.8ZM34.2 28.8H1.79998C1.46861 28.8 1.19998 28.5313 1.19998 28.2V25.8H3.59998C3.93136 25.8 4.19999 25.5313 4.19999 25.2C4.19999 24.8686 3.93136 24.6 3.59998 24.6H1.19998V4.79994C1.19998 4.46857 1.46861 4.19994 1.79998 4.19994H13.494L9.52799 8.16595C8.8261 8.86871 8.8261 10.0072 9.52799 10.7099L13.8 14.9519C14.5027 15.6538 15.6412 15.6538 16.344 14.9519L18.894 12.4079L19.8 13.3319C19.4716 14.0189 19.6109 14.8382 20.148 15.3779L27.6 22.8C27.9377 23.1389 28.3965 23.3294 28.875 23.3294C29.3535 23.3294 29.8122 23.1389 30.15 22.8L31.8 21.126C32.49 20.4253 32.49 19.3006 31.8 18.6L24.36 11.1599C23.8262 10.6268 23.0166 10.4831 22.332 10.7999L21.408 9.87595L23.952 7.32594C24.6539 6.62318 24.6539 5.48471 23.952 4.78194L23.4 4.19994H34.2C34.5314 4.19994 34.8 4.46857 34.8 4.79994V24.6H5.99998C5.66861 24.6 5.39998 24.8686 5.39998 25.2C5.39998 25.5313 5.66861 25.8 5.99998 25.8H34.8V28.2C34.8 28.5313 34.5314 28.8 34.2 28.8Z"
                      fill="white"/>
                <path d="M16.2 22.1998V19.7998C16.2 18.143 14.8568 16.7998 13.2 16.7998H7.19999C5.54313 16.7998 4.19999 18.143 4.19999 19.7998V22.1998C4.19999 22.5312 4.46861 22.7998 4.79999 22.7998H15.6C15.9314 22.7998 16.2 22.5312 16.2 22.1998ZM7.19999 17.9998H13.2C13.9609 18.0019 14.6383 18.4824 14.892 19.1998H5.50799C5.76163 18.4824 6.43903 18.0019 7.19999 17.9998ZM5.39999 21.5998V20.3998H15V21.5998H5.39999Z"
                      fill="white"/>
                <path d="M3.77398 15.4257C4.00926 15.661 4.39071 15.661 4.62598 15.4257C4.86125 15.1904 4.86125 14.809 4.62598 14.5737L3.42598 13.3737C3.19071 13.1384 2.80926 13.1384 2.57398 13.3737C2.33871 13.609 2.33871 13.9904 2.57398 14.2257L3.77398 15.4257Z"
                      fill="white"/>
                <path d="M3.59998 16.1997H2.39998C2.06861 16.1997 1.79998 16.4683 1.79998 16.7997C1.79998 17.1311 2.06861 17.3997 2.39998 17.3997H3.59998C3.93135 17.3997 4.19998 17.1311 4.19998 16.7997C4.19998 16.4683 3.93135 16.1997 3.59998 16.1997Z"
                      fill="white"/>
                <path d="M16.8 17.9997C17.046 17.9997 16.968 17.9997 18.93 16.6977C19.1713 16.5034 19.2249 16.1573 19.0538 15.899C18.8826 15.6408 18.543 15.5553 18.27 15.7017L16.47 16.9017C16.2516 17.0485 16.1543 17.3204 16.23 17.5724C16.3058 17.8244 16.5369 17.9977 16.8 17.9997Z"
                      fill="white"/>
                <path d="M18.87 19.2659L17.67 18.6658C17.3799 18.545 17.0457 18.6686 16.9039 18.949C16.7621 19.2295 16.8607 19.5718 17.13 19.7339L18.33 20.3339C18.5227 20.4498 18.7641 20.4483 18.9553 20.3298C19.1465 20.2114 19.2554 19.996 19.2374 19.7718C19.2195 19.5476 19.0776 19.3523 18.87 19.2659Z"
                      fill="white"/>
            </g>
            <defs>
                <clipPath id="clip0">
                    <rect width="36" height="36" fill="white"/>
                </clipPath>
            </defs>

        </g>
    </symbol>

    <symbol id="menu" viewBox="0 0 34 34">
        <g>
            <g clip-path="url(#clip0)">
                <path d="M33.2916 6.375H0.708355C0.317355 6.375 0 6.69236 0 7.08336C0 7.47436 0.317355 7.79171 0.708355 7.79171H33.2917C33.6827 7.79171 34.0001 7.47436 34.0001 7.08336C34.0001 6.69236 33.6826 6.375 33.2916 6.375Z"
                      fill="black"/>
                <path d="M33.2916 16.2915H0.708355C0.317355 16.2915 0 16.6089 0 16.9999C0 17.3909 0.317355 17.7082 0.708355 17.7082H33.2917C33.6827 17.7082 34.0001 17.3909 34.0001 16.9999C34.0001 16.6089 33.6826 16.2915 33.2916 16.2915Z"
                      fill="black"/>
                <path d="M33.2916 26.2085H0.708355C0.317355 26.2085 0 26.5258 0 26.9168C0 27.3078 0.317355 27.6251 0.708355 27.6251H33.2917C33.6827 27.6251 34.0001 27.3078 34.0001 26.9168C34 26.5258 33.6826 26.2085 33.2916 26.2085Z"
                      fill="black"/>
            </g>
            <defs>
                <clipPath id="clip0">
                    <rect width="34" height="34" fill="white"/>
                </clipPath>
            </defs>

        </g>
    </symbol>


    <symbol id="fire" viewBox="0 0 42 42">
        <g>
            <g clip-path="url(#clip0)">
                <path d="M15.8185 0.137936C15.5924 -0.0459786 15.2682 -0.0459786 15.0421 0.137936C13.0175 1.7848 13.0217 4.86672 15.0421 6.51022C15.2682 6.69414 15.5924 6.69414 15.8185 6.51022C16.7826 5.726 17.3354 4.56476 17.3354 3.32404C17.3355 2.08331 16.7826 0.922075 15.8185 0.137936ZM15.4304 5.17458C14.5374 4.11581 14.5242 2.54802 15.4304 1.47365C16.3236 2.53268 16.3362 4.10047 15.4304 5.17458Z"
                      fill="white"/>
                <path d="M36.4555 11.3777C36.2294 11.1938 35.9051 11.1938 35.6791 11.3777C33.6585 13.0212 33.6545 16.1032 35.6791 17.75C35.9051 17.9339 36.2294 17.9339 36.4555 17.75C38.484 16.1001 38.4722 13.0181 36.4555 11.3777ZM36.0673 16.4142C35.1742 15.3553 35.1611 13.7877 36.0673 12.7133C36.9605 13.7723 36.9735 15.3399 36.0673 16.4142Z"
                      fill="white"/>
                <path d="M5.96064 13.9573C5.73448 13.7734 5.41038 13.7734 5.18422 13.9573C3.64039 15.2128 3.64358 17.5635 5.18422 18.8163C5.41038 19.0002 5.73448 19.0002 5.96064 18.8163C7.50447 17.5608 7.50128 15.2102 5.96064 13.9573ZM5.57247 17.4343C5.15903 16.8101 5.14738 15.9811 5.57247 15.3393C5.98591 15.9635 5.99748 16.7925 5.57247 17.4343Z"
                      fill="white"/>
                <path d="M27.4519 5.55542C27.2256 5.3715 26.9015 5.3715 26.6755 5.55542C25.1316 6.81115 25.1349 9.16143 26.6755 10.4145C26.9015 10.5984 27.2258 10.5984 27.4519 10.4145C28.9957 9.15906 28.9926 6.80845 27.4519 5.55542ZM27.0636 9.0324C26.6486 8.40568 26.6403 7.57667 27.0636 6.93748C27.4807 7.56674 27.4854 8.39584 27.0636 9.0324Z"
                      fill="white"/>
                <path d="M35.8997 21.5847C34.8679 18.5528 33.1473 15.668 30.9244 13.2423C30.4365 12.7097 29.5284 11.7179 28.5305 11.9971C27.8461 12.1885 27.3899 12.9043 27.1352 14.1852C27.0793 14.4663 26.999 14.7262 26.9025 14.9697C26.4476 13.6896 25.7301 12.3724 24.7319 10.9806C24.6286 10.8367 24.5123 10.6843 24.3761 10.5146C23.9421 9.97386 22.504 7.94309 22.2217 4.51418C22.1354 3.46557 20.8854 2.97133 20.1063 3.6791C18.4485 5.18322 17.0342 6.99965 15.9851 9.05847C15.8308 9.36125 15.9512 9.7317 16.254 9.88601C16.5565 10.04 16.9271 9.9198 17.0814 9.61719C18.0445 7.7271 19.3543 6.02314 20.9334 4.59014C20.9577 4.56782 20.9927 4.58152 20.9954 4.61516C21.3063 8.39254 22.9273 10.6753 23.4166 11.2849C24.5513 12.6987 25.731 14.7805 26.1149 16.7228C26.2219 17.2651 26.938 17.4012 27.2362 16.9355C27.6616 16.2722 28.1328 15.4764 28.3419 14.4249C28.5665 13.2944 28.8588 13.1828 28.8617 13.182C29.372 13.0412 33.0439 17.013 34.7349 21.9811C34.8447 22.3039 35.1955 22.4746 35.5156 22.3653C35.8372 22.2559 36.0092 21.9064 35.8997 21.5847Z"
                      fill="white"/>
                <path d="M36.6602 24.4424C36.5961 24.1086 36.273 23.8902 35.9399 23.9542C35.6063 24.0183 35.3878 24.3408 35.4518 24.6745C36.4632 29.9408 35.1865 34.661 31.016 37.822C35.0095 32.7787 32.9036 25.1904 28.5947 20.4883C28.2382 20.0993 27.4963 19.2893 26.6647 19.5226C25.8163 19.7598 25.6291 20.8233 25.4917 21.3888C24.234 18.3405 22.5276 18.0112 22.2088 14.1373C22.134 13.2298 21.0522 12.8025 20.378 13.4146C17.8353 15.722 16.2254 18.8041 15.823 22.3988C15.5663 22.0051 15.3021 21.511 15.0988 20.9241C14.7572 19.938 13.4392 19.7719 12.8719 20.6347C12.8101 20.7286 12.7511 20.8251 12.6965 20.9216C10.2747 25.2039 9.42434 30.0797 10.3634 34.2985C10.6501 35.5886 11.2195 36.7714 12.0298 37.8033C9.84541 36.1886 8.38525 34.0421 7.8153 31.4779C6.62067 26.1109 7.71612 19.8843 10.8208 14.3947C10.8792 14.2914 10.9421 14.1885 11.0077 14.0888C11.1211 13.9164 11.3778 13.9671 11.4444 14.159C12.3579 16.7962 14.0265 18.224 14.0969 18.2834C14.4928 18.6174 15.101 18.34 15.1085 17.8219C15.1364 15.8991 15.4322 14.0365 15.9877 12.2859C16.0904 11.9621 15.9111 11.6161 15.5873 11.5134C15.2634 11.4105 14.9175 11.5899 14.8148 11.9137C14.3703 13.3149 14.0818 14.7817 13.9532 16.291C13.5025 15.6879 12.9807 14.8351 12.6069 13.7562C12.2052 12.5967 10.6514 12.3917 9.97961 13.4126C9.89897 13.5353 9.8217 13.6618 9.74984 13.7888C6.49705 19.54 5.35411 26.0848 6.61411 31.7449C7.55296 35.969 10.7755 39.3303 15.4555 40.9668C25.9063 44.6209 39.3532 38.4616 36.6602 24.4424ZM23.999 39.9784C22.1958 41.4342 18.6728 40.8165 18.1636 38.5256C17.8947 37.3175 18.0776 35.9347 18.6636 34.6512C18.909 35.038 19.1551 35.253 19.1943 35.286C19.5898 35.6195 20.1983 35.3433 20.2059 34.8244C20.2211 33.7808 20.537 32.8389 21.1258 32.0675C21.4828 33.2659 22.1919 33.5824 22.3925 34.598C22.4996 35.1403 23.2155 35.2764 23.5139 34.8109C23.6117 34.6584 23.7088 34.4929 23.784 34.2994C25.1307 35.9291 25.7625 38.5542 23.999 39.9784ZM28.4661 38.609C30.7604 35.1252 29.3129 30.2077 26.4682 27.1036C26.2002 26.8109 25.6425 26.2016 24.9616 26.3925C24.5184 26.5166 24.2895 26.9137 24.1677 27.2566C23.8977 26.7252 23.5173 26.1418 23.2073 25.7551C23.0626 25.5749 22.334 24.5914 22.1968 22.9223C22.1328 22.1438 21.2044 21.777 20.6259 22.302C19.0133 23.7653 17.938 25.6866 17.5607 27.9221C17.4935 27.7821 17.43 27.6304 17.3737 27.4677C17.0894 26.6468 15.9883 26.5042 15.5126 27.2271C15.0482 27.9327 14.3242 29.4886 13.9279 31.0581C13.8447 31.3876 14.0443 31.7221 14.3737 31.8052C14.7035 31.8885 15.0377 31.6888 15.1208 31.3593C15.3929 30.282 15.8062 29.231 16.3507 28.2317C16.8494 29.3999 17.5952 30.038 17.6298 30.067C18.0251 30.4005 18.6338 30.1245 18.6414 29.6055C18.6753 27.271 19.5046 25.2022 21.0422 23.6127C21.3045 25.2392 22.0162 26.2365 22.2478 26.5251C22.7857 27.1946 23.3538 28.1938 23.5351 29.1111C23.6419 29.6526 24.3575 29.7904 24.6563 29.324C25.2479 28.402 25.2046 28.0461 25.3206 27.6924C25.3799 27.7452 25.4583 27.8222 25.5612 27.9346C28.681 31.339 29.7265 36.8364 25.9128 39.4931C26.8511 37.5115 26.0369 34.9246 24.4951 33.2422C24.3235 33.0549 23.9221 32.6163 23.3815 32.7677C23.2433 32.8063 23.1235 32.8766 23.0223 32.9782C22.6831 32.4385 22.2728 32.13 22.186 31.0741C22.1317 30.4153 21.3453 30.1051 20.856 30.5495C20.087 31.2483 19.519 32.1305 19.2187 33.1563C18.8415 32.8464 18.252 32.9058 17.9627 33.3455C16.9247 34.9228 16.402 37.7274 17.1969 39.4979C15.2815 38.1968 14.7268 36.3708 14.7575 34.0644C14.762 33.7246 14.4903 33.4456 14.1506 33.4411C13.8131 33.4364 13.5317 33.7082 13.5271 34.0479C13.5061 35.6328 13.749 37.2626 14.6104 38.6013C13.0372 37.4277 11.969 35.8502 11.5647 34.0311C10.6908 30.1053 11.4937 25.5478 13.7677 21.5271C13.8088 21.4543 13.8534 21.3815 13.9021 21.306C13.9022 21.306 13.905 21.3053 13.9089 21.3053C13.917 21.3053 13.9299 21.3083 13.9362 21.3266C14.6253 23.3158 15.8902 24.3982 15.9438 24.4433C16.3402 24.7773 16.9479 24.4998 16.9554 23.9818C17.0076 20.3826 18.3062 17.0865 21.0081 14.5088C21.2937 17.1824 22.4487 18.8072 22.8058 19.252C23.6277 20.2753 24.4883 21.7924 24.7663 23.1988C24.8731 23.74 25.5886 23.878 25.8876 23.4116C26.9408 21.769 26.6344 21.1814 26.9999 20.7215C27.0864 20.7539 27.2823 20.877 27.6876 21.3192C27.6876 21.3192 27.6876 21.3192 27.6876 21.3193C32.28 26.3309 33.9331 34.4518 28.4661 38.609Z"
                      fill="white"/>
            </g>
            <defs>
                <clipPath id="clip0">
                    <rect width="42" height="42" fill="white"/>
                </clipPath>
            </defs>

        </g>
    </symbol>

    <symbol id="logistics" viewBox="0 0 40 40">
        <g>
            <path d="M10.625 6.875C10.625 4.80687 8.94312 3.125 6.875 3.125C4.80687 3.125 3.125 4.80687 3.125 6.875C3.125 8.94312 4.80687 10.625 6.875 10.625C8.94312 10.625 10.625 8.94312 10.625 6.875ZM4.375 6.875C4.375 5.49625 5.49625 4.375 6.875 4.375C8.25375 4.375 9.375 5.49625 9.375 6.875C9.375 8.25375 8.25375 9.375 6.875 9.375C5.49625 9.375 4.375 8.25375 4.375 6.875Z"
                  fill="white"/>
            <path d="M34.295 4.82031L35.1788 3.93656L36.0625 4.82031L35.1788 5.70406L34.295 4.82031Z" fill="white"/>
            <path d="M32.5271 6.5874L33.4108 5.70365L34.2946 6.5874L33.4108 7.47115L32.5271 6.5874Z" fill="white"/>
            <path d="M30.8044 8.31055L31.6435 7.47143L32.5273 8.35518L31.6882 9.1943L30.8044 8.31055Z" fill="white"/>
            <path d="M37.5 26.8752H34.0331C35.0762 24.7458 35.625 22.3908 35.625 20.0002C35.625 16.8252 34.6775 13.8008 32.8994 11.2027C33.3713 10.8733 33.8319 10.5277 34.28 10.1645L38.125 14.0089L39.465 12.6689L37.59 7.04328L37.79 6.84328C38.4094 6.22516 38.75 5.40266 38.75 4.52641C38.75 2.72016 37.28 1.25016 35.4731 1.25016C34.5988 1.25016 33.7756 1.59078 33.1562 2.20891L32.955 2.41016L27.3306 0.535156L25.9912 1.87516L29.8363 5.72016C29.4725 6.16766 29.1275 6.62891 28.7981 7.10016C26.1994 5.32266 23.175 4.37516 20 4.37516C17.5844 4.37516 15.2038 4.93578 13.0569 6.00078C12.6294 2.96828 10.0238 0.625156 6.875 0.625156C3.42875 0.625156 0.625 3.42891 0.625 6.87516V7.04703C0.625 8.28453 0.988125 9.48328 1.675 10.5139L5.02938 15.5452C4.60063 16.9858 4.375 18.482 4.375 20.0002C4.375 21.9477 4.72813 23.8352 5.42063 25.6252H5C3.96625 25.6252 3.125 26.4664 3.125 27.5002C3.125 28.3139 3.64937 29.0014 4.375 29.2602V30.6252H0.625V32.7183C0.625 36.3889 3.61125 39.3752 7.28188 39.3752H14.2C16.7681 39.3752 19.0894 37.8764 20.1881 35.6202C22.0687 35.5983 23.8931 35.2495 25.6256 34.5795V37.5002C25.6256 38.5339 26.4669 39.3752 27.5006 39.3752H37.5006C38.5344 39.3752 39.3756 38.5339 39.3756 37.5002V28.7502C39.375 27.7164 38.5337 26.8752 37.5 26.8752ZM30.625 28.1252H34.375V29.3752H30.625V28.1252ZM27.5 26.8752H25.6338C25.9956 24.9852 26.21 22.8727 26.2438 20.6252H34.3544C34.2594 22.817 33.665 24.9577 32.6187 26.8752H27.5ZM20.6056 34.2489L20.625 33.1252H17.8862L15.8931 29.1383C16.2944 28.9189 16.6044 28.5608 16.76 28.1252H24.0794C23.2344 31.4914 21.9188 33.7164 20.6056 34.2489ZM16.76 26.8752C16.5487 26.2827 16.0519 25.8277 15.4319 25.6802C15.1794 24.0733 15.0394 22.3783 15.0125 20.6252H24.9938C24.9581 22.9358 24.7263 25.042 24.36 26.8752H16.76ZM5.64875 19.3752C5.68813 18.4552 5.80562 17.5445 6.0175 16.6552C6.27688 16.797 6.57 16.8752 6.875 16.8752C7.47563 16.8752 8.03312 16.5764 8.36688 16.077L10.3344 13.1252H14.3663C14.0044 15.0152 13.79 17.1277 13.7563 19.3752H5.64875ZM15.6438 13.1252H24.3644C24.7431 15.0364 24.9544 17.1639 24.9887 19.3752H15.0119C15.0481 17.0652 15.2769 14.957 15.6438 13.1252ZM20 5.62516C21.1106 5.62516 22.2531 6.88266 23.17 9.07141L22.695 9.54641L23.51 9.95391C23.7225 10.557 23.9156 11.1964 24.085 11.8752H15.9244C16.9013 7.99328 18.5037 5.62516 20 5.62516ZM26.925 10.2639L24.805 9.20391L25.1919 8.81766L27.3881 9.36641C27.2269 9.66141 27.0744 9.96141 26.925 10.2639ZM26.4 11.3989C26.395 11.4102 26.3894 11.4214 26.3844 11.4327C26.3231 11.5745 26.2906 11.7239 26.2712 11.8752H25.3675C25.275 11.4833 25.1744 11.1039 25.0681 10.7333L26.4 11.3989ZM34.3506 19.3752H26.2387C26.2056 17.1764 26 15.0545 25.6338 13.1252H26.6237C26.9287 13.5033 27.3894 13.7502 27.9119 13.7502C28.1369 13.7502 28.3569 13.7052 28.5669 13.6158C28.5788 13.6108 28.5894 13.6052 28.6012 13.6002L30.4538 17.3052L32.5669 15.1914L31.7581 11.9558C31.7919 11.9352 31.8244 11.9127 31.8581 11.8914C33.3825 14.1145 34.2356 16.677 34.3506 19.3752ZM30.6338 12.612L31.1825 14.8083L30.7956 15.1945L29.7356 13.0745C30.0387 12.9258 30.3388 12.7733 30.6338 12.612ZM37.945 12.0614L35.2337 9.35016C35.5481 9.06703 35.8569 8.77703 36.1569 8.47641L36.6012 8.03203L37.945 12.0614ZM35.4731 2.50016C36.5906 2.50016 37.5 3.40891 37.5 4.52641C37.5 5.06828 37.2894 5.57703 36.9062 5.95953L35.2731 7.59266C33.1963 9.66953 30.7738 11.3095 28.0756 12.4664C27.8113 12.5777 27.5 12.3714 27.5 12.0883C27.5 12.032 27.5113 11.977 27.5331 11.9252C28.6906 9.22578 30.33 6.80391 32.4069 4.72641L34.0394 3.09328V3.09391C34.4231 2.71078 34.9325 2.50016 35.4731 2.50016ZM27.9394 2.05516L31.9681 3.39828L31.5238 3.84328C31.2231 4.14391 30.9331 4.45266 30.65 4.76641L27.9394 2.05516ZM28.0437 8.24203L24.8088 7.43266L24.1225 8.11891C23.7119 7.22703 23.2575 6.48203 22.7681 5.90016C24.6781 6.27078 26.4837 7.02703 28.1087 8.14141C28.0869 8.17578 28.0644 8.20828 28.0437 8.24203ZM13.0994 7.39453C14.405 6.67891 15.8125 6.16953 17.2719 5.88828C16.1694 7.19453 15.255 9.27891 14.6344 11.8752H11.1675L12.075 10.5139C12.6969 9.58078 13.0375 8.50766 13.0994 7.39453ZM1.875 7.04703V6.87516C1.875 4.11828 4.11813 1.87516 6.875 1.87516C9.63188 1.87516 11.875 4.11828 11.875 6.87516V7.04703C11.875 8.03766 11.5844 8.99641 11.035 9.82078L7.32625 15.3833C7.12437 15.6858 6.625 15.6858 6.42313 15.3833L2.71438 9.82078C2.16562 8.99703 1.875 8.03766 1.875 7.04703ZM5.64125 20.6252H13.7625C13.7888 22.3539 13.9219 24.0289 14.1606 25.6252H6.7725C6.09563 24.0364 5.715 22.3595 5.64125 20.6252ZM5 26.8752H15C15.3444 26.8752 15.625 27.1552 15.625 27.5002C15.625 27.8452 15.3444 28.1252 15 28.1252H5C4.65562 28.1252 4.375 27.8452 4.375 27.5002C4.375 27.1552 4.65562 26.8752 5 26.8752ZM5.625 29.3752H14.6138L16.4888 33.1252H7.88625L6.63625 30.6252H5.625V29.3752ZM14.2 38.1252H7.28188C4.30063 38.1252 1.875 35.6995 1.875 32.7183V31.8752H5.86375L7.11375 34.3752H19.3469C18.6325 36.592 16.5412 38.1252 14.2 38.1252ZM22.7275 34.1127C23.83 32.8064 24.745 30.7214 25.3656 28.1252H25.74C25.67 28.3214 25.625 28.5302 25.625 28.7502V33.227C24.6875 33.627 23.72 33.9227 22.7275 34.1127ZM38.125 37.5002C38.125 37.8452 37.8444 38.1252 37.5 38.1252H27.5C27.1556 38.1252 26.875 37.8452 26.875 37.5002V28.7502C26.875 28.4052 27.1556 28.1252 27.5 28.1252H29.375V30.6252H35.625V28.1252H37.5C37.8444 28.1252 38.125 28.4052 38.125 28.7502V37.5002Z"
                  fill="white"/>
            <path d="M35.625 35.625H36.875V36.875H35.625V35.625Z" fill="white"/>
            <path d="M33.125 35.625H34.375V36.875H33.125V35.625Z" fill="white"/>
            <path d="M10.625 30.625H11.875V31.875H10.625V30.625Z" fill="white"/>
            <path d="M13.125 30.625H14.375V31.875H13.125V30.625Z" fill="white"/>
            <path d="M8.125 30.625H9.375V31.875H8.125V30.625Z" fill="white"/>
            <path d="M16.875 21.875H18.125V23.125H16.875V21.875Z" fill="white"/>
            <path d="M21.875 21.875H23.125V23.125H21.875V21.875Z" fill="white"/>
            <path d="M19.375 21.875H20.625V23.125H19.375V21.875Z" fill="white"/>
            <path d="M21.875 16.875H23.125V18.125H21.875V16.875Z" fill="white"/>
            <path d="M19.375 16.875H20.625V18.125H19.375V16.875Z" fill="white"/>
            <path d="M16.875 16.875H18.125V18.125H16.875V16.875Z" fill="white"/>

        </g>
    </symbol>

    <symbol id="email" viewBox="0 0 36 36">
        <g>
            <g clip-path="url(#clip0)">
                <path d="M24.0469 6.08252H11.9531C11.6618 6.08252 11.4258 6.31863 11.4258 6.60986C11.4258 6.9011 11.6618 7.13721 11.9531 7.13721H24.0469C24.3382 7.13721 24.5742 6.9011 24.5742 6.60986C24.5742 6.31863 24.3382 6.08252 24.0469 6.08252Z"
                      fill="white"/>
                <path d="M24.0469 9.6333H11.9531C11.6618 9.6333 11.4258 9.86941 11.4258 10.1606C11.4258 10.4519 11.6618 10.688 11.9531 10.688H24.0469C24.3382 10.688 24.5742 10.4519 24.5742 10.1606C24.5742 9.86941 24.3382 9.6333 24.0469 9.6333Z"
                      fill="white"/>
                <path d="M24.0469 13.1841H11.9531C11.6618 13.1841 11.4258 13.4202 11.4258 13.7114C11.4258 14.0027 11.6618 14.2388 11.9531 14.2388H24.0469C24.3382 14.2388 24.5742 14.0027 24.5742 13.7114C24.5742 13.4202 24.3382 13.1841 24.0469 13.1841Z"
                      fill="white"/>
                <path d="M24.0469 16.5591H11.9531C11.6618 16.5591 11.4258 16.7952 11.4258 17.0864C11.4258 17.3777 11.6618 17.6138 11.9531 17.6138H24.0469C24.3382 17.6138 24.5742 17.3777 24.5742 17.0864C24.5742 16.7952 24.3382 16.5591 24.0469 16.5591Z"
                      fill="white"/>
                <path d="M35.4727 27.504C35.764 27.504 36 27.2679 36 26.9767V12.4454C36 12.4435 35.9996 12.4417 35.9996 12.4398C35.9996 12.4312 35.9985 12.4227 35.9979 12.4142C35.9968 12.3965 35.9954 12.3789 35.9926 12.3616C35.9911 12.3524 35.989 12.3435 35.9871 12.3345C35.9835 12.3178 35.9793 12.3015 35.9742 12.2854C35.9714 12.2766 35.9684 12.2681 35.9651 12.2595C35.959 12.2432 35.952 12.2276 35.9444 12.2121C35.9406 12.2044 35.9369 12.1967 35.9327 12.1891C35.9231 12.1719 35.9124 12.1556 35.901 12.1395C35.8974 12.1345 35.8943 12.1293 35.8906 12.1243C35.8744 12.1032 35.8568 12.0833 35.8375 12.0648C35.837 12.0643 35.8364 12.0639 35.836 12.0634C35.8173 12.0457 35.797 12.0296 35.7757 12.0146C35.774 12.0134 35.7727 12.0119 35.771 12.0107L29.6369 7.80568V3.30519C29.6369 3.01395 29.4009 2.77784 29.1096 2.77784H27.0002C26.7089 2.77784 26.4729 3.01395 26.4729 3.30519C26.4729 3.59642 26.7089 3.83253 27.0002 3.83253H28.5822V16.2496L18 23.0546L7.41797 16.2496C7.41797 16.249 7.41797 16.2496 7.41797 16.249V3.83246C7.41916 3.83246 7.41797 3.83246 7.41916 3.83246H24.7588C25.0501 3.83246 25.2861 3.59635 25.2861 3.30512C25.2861 3.01388 25.0501 2.77777 24.7588 2.77777H22.3021L18.4536 0.139509C18.1782 -0.0467482 17.822 -0.0468888 17.5436 0.141408L13.6979 2.77784H6.89062C6.59932 2.77784 6.36328 3.01395 6.36328 3.30519V7.80575L0.229219 12.0107C0.227531 12.0119 0.226195 12.0134 0.224508 12.0146C0.203203 12.0296 0.182953 12.0457 0.164391 12.0634C0.163828 12.0639 0.163195 12.0643 0.162703 12.0648C0.143367 12.0833 0.125789 12.1032 0.109617 12.1243C0.10582 12.1293 0.102797 12.1345 0.0992109 12.1395C0.08775 12.1556 0.0770625 12.1719 0.0675 12.1891C0.0632812 12.1966 0.0596953 12.2044 0.0558281 12.2121C0.0481641 12.2276 0.0412031 12.2433 0.0350859 12.2595C0.0318516 12.2681 0.0287578 12.2767 0.0259453 12.2855C0.0208125 12.3016 0.0166641 12.3179 0.0130781 12.3345C0.0111094 12.3436 0.009 12.3525 0.00752344 12.3616C0.00471094 12.3789 0.00330469 12.3966 0.00225 12.4143C0.00175781 12.4228 0.000632813 12.4313 0.000492188 12.4398C0.000492188 12.4417 0.000140625 12.4436 0.000140625 12.4455V15.7269C0.000140625 16.0181 0.23618 16.2542 0.527484 16.2542C0.818789 16.2542 1.05483 16.0181 1.05483 15.7269V13.4115L17.0252 23.6815L1.56403 33.624C1.24256 33.1475 1.05469 32.5738 1.05469 31.9571V17.9768C1.05469 17.6856 0.818648 17.4495 0.527344 17.4495C0.236039 17.4495 0 17.6856 0 17.9768V31.9571C0 32.9865 0.387281 33.9267 1.02305 34.6411C1.03395 34.6558 1.04534 34.6702 1.05778 34.6837C1.22871 34.8707 1.41652 35.0387 1.61655 35.1887C1.62162 35.1925 1.62661 35.1963 1.63174 35.2001C1.67351 35.2311 1.71584 35.2611 1.75866 35.2905C1.77525 35.3019 1.79184 35.3132 1.80865 35.3243C1.8424 35.3466 1.87643 35.3685 1.91074 35.3898C1.93894 35.4074 1.96748 35.4246 1.99617 35.4414C2.0212 35.4561 2.0463 35.4707 2.07162 35.4849C2.11205 35.5075 2.15297 35.5293 2.19424 35.5506C2.20964 35.5586 2.22504 35.5667 2.24058 35.5744C2.29352 35.6009 2.34717 35.6261 2.40138 35.6503C2.40673 35.6526 2.41207 35.6552 2.41741 35.6575C2.91523 35.8772 3.46486 36 4.04297 36H31.957C32.5353 36 33.0851 35.8771 33.583 35.6574C33.5879 35.6553 33.5926 35.6531 33.5974 35.6509C33.6523 35.6264 33.7065 35.601 33.76 35.5742C33.775 35.5667 33.7897 35.5589 33.8046 35.5513C33.8465 35.5297 33.8881 35.5075 33.9291 35.4845C33.9538 35.4707 33.9782 35.4564 34.0026 35.4421C34.032 35.4248 34.0612 35.4073 34.0901 35.3893C34.1239 35.3683 34.1572 35.3469 34.1904 35.3249C34.2078 35.3133 34.2252 35.3016 34.2424 35.2897C34.2846 35.2609 34.3262 35.2313 34.3673 35.2008C34.3731 35.1965 34.3789 35.192 34.3848 35.1876C34.5843 35.0379 34.7716 34.8703 34.9421 34.6837C34.9545 34.6702 34.966 34.6559 34.9768 34.6413C35.6126 33.9268 36 32.9865 36 31.9571V29.2853C36 28.9941 35.764 28.7579 35.4727 28.7579C35.1814 28.7579 34.9453 28.9941 34.9453 29.2853V31.9571C34.9453 32.5739 34.7574 33.1475 34.436 33.624L18.975 23.6815L34.9418 13.4139C34.9454 13.4115 34.9418 13.4139 34.9453 13.4115V26.9767C34.9453 27.2679 35.1814 27.504 35.4727 27.504ZM18 1.10729L20.4368 2.77784H15.5632L18 1.10729ZM6.36328 15.5713L2.3227 12.9729H6.36328V15.5713ZM6.36328 11.9183H2.22926L6.36328 9.08438V11.9183ZM33.6833 34.3939C33.6662 34.4061 33.6493 34.4187 33.6319 34.4305C33.6286 34.4328 33.6253 34.435 33.622 34.4372C33.5884 34.4599 33.5541 34.4817 33.5195 34.503C33.513 34.5069 33.5067 34.5111 33.5003 34.515C33.4643 34.5368 33.4278 34.5577 33.3909 34.578C33.3686 34.5902 33.3459 34.6017 33.3233 34.6134C33.3096 34.6205 33.296 34.6276 33.2822 34.6345C33.2547 34.648 33.227 34.6612 33.1992 34.6739C33.1914 34.6774 33.1837 34.6809 33.1759 34.6844C33.0064 34.7602 32.83 34.8204 32.6488 34.8637C32.6451 34.8646 32.6413 34.8654 32.6376 34.8663C32.5424 34.8886 32.4458 34.906 32.3484 34.9189C32.3288 34.9215 32.3092 34.9243 32.2895 34.9265C32.2682 34.9288 32.2469 34.9308 32.2256 34.9327C32.1984 34.9352 32.1711 34.9373 32.1438 34.939C32.127 34.94 32.1102 34.9412 32.0934 34.9419C32.0482 34.9439 32.0027 34.9453 31.957 34.9453H4.04297C3.99727 34.9453 3.95184 34.9439 3.90663 34.9419C3.88983 34.9411 3.87309 34.94 3.85636 34.9389C3.82887 34.9372 3.80152 34.9351 3.7743 34.9326C3.75307 34.9307 3.73191 34.9288 3.71074 34.9264C3.69077 34.9241 3.67095 34.9214 3.65112 34.9188C3.55423 34.9059 3.45818 34.8886 3.3634 34.8664C3.35918 34.8654 3.35489 34.8644 3.3506 34.8635C3.31488 34.8549 3.2793 34.8458 3.24401 34.836C3.2438 34.8359 3.24352 34.8358 3.2433 34.8358C3.10036 34.796 2.96079 34.7454 2.82558 34.685C2.81679 34.6811 2.80793 34.6771 2.79921 34.6731C2.77228 34.6607 2.74549 34.648 2.71891 34.6349C2.70323 34.6271 2.68784 34.619 2.6723 34.611C2.65148 34.6002 2.63053 34.5897 2.61 34.5784C2.57238 34.5578 2.53526 34.5365 2.49863 34.5143C2.49349 34.5112 2.48843 34.5079 2.48337 34.5047C2.4473 34.4826 2.41165 34.4599 2.3767 34.4362C2.37438 34.4347 2.37199 34.4331 2.36967 34.4315C2.35174 34.4193 2.33438 34.4063 2.31666 34.3938L18 24.3084L33.6833 34.3939ZM29.6367 15.5713V12.973H33.6773L29.6367 15.5713ZM29.6367 11.9183V9.08438L33.7707 11.9183H29.6367Z"
                      fill="white"/>
            </g>
            <defs>
                <clipPath id="clip0">
                    <rect width="36" height="36" fill="white"/>
                </clipPath>
            </defs>
        </g>
    </symbol>

    <symbol id="salesman" viewBox="0 0 40 40">
        <g>
            <path d="M35 29.5V27.875C35 25.125 33.375 22.6875 30.875 21.5625L25.375 19.125C26.3125 18.125 26.875 16.75 26.875 15.375L28.375 14.625C29 14.3125 29.4375 13.6875 29.4375 12.9375V12.5C29.4375 11.4375 28.625 10.625 27.5625 10.625H26.9375V6.25C26.9375 4.5 25.5625 3.125 23.8125 3.125H23.5C22.6875 3.125 21.875 2.8125 21.3125 2.1875L20.25 1.125L16.6875 2.3125C16.25 2.4375 15.8125 2.6875 15.4375 2.9375L14.9375 3.3125C13.75 4.1875 13.125 5.5 13.125 6.875V10.625H12.5C11.4375 10.625 10.625 11.4375 10.625 12.5V13C10.625 13.6875 11 14.375 11.6875 14.6875L13.1875 15.4375C13.1875 16.8125 13.75 18.125 14.6875 19.1875L9.1875 21.625C6.6875 22.75 5.0625 25.1875 5.0625 27.9375V38.75H34.4375C35.5 38.75 36.3125 37.9375 36.3125 36.875V31.25C36.25 30.4375 35.75 29.75 35 29.5ZM26.875 11.875H27.5C27.875 11.875 28.125 12.125 28.125 12.5V13C28.125 13.25 28 13.4375 27.75 13.5625L26.875 14V11.875ZM13.125 14L12.25 13.5625C12.0625 13.4375 11.875 13.25 11.875 13V12.5C11.875 12.125 12.125 11.875 12.5 11.875H13.125V14ZM27.1875 21.3125L24.3125 24.1875L21.375 21.6875C21.6875 21.5625 21.9375 21.4375 22.1875 21.3125L24.0625 20.1875C24.125 20.1875 24.125 20.125 24.1875 20.0625L27.1875 21.3125ZM14.375 6.875C14.375 5.875 14.8125 4.9375 15.625 4.375L16.125 4C16.375 3.8125 16.6875 3.625 17 3.5625L19.8125 2.625L20.3125 3.125C21.125 3.9375 22.25 4.4375 23.4375 4.4375H23.75C24.8125 4.4375 25.625 5.25 25.625 6.3125V8.9375C25.4375 8.875 25.1875 8.8125 25 8.8125H21.0625C20.1875 8.8125 19.375 8.375 18.875 7.6875L18.6875 7.5C18.0625 6.6875 17 6.5 16.125 7.0625L14.375 8.1875V6.875ZM15.6875 20C15.75 20 15.75 20.0625 15.8125 20.125L17.6875 21.25C17.9375 21.4375 18.25 21.5625 18.5 21.625L15.5625 24.125L12.6875 21.25L15.6875 20ZM19.375 37.5H12.5V30.625H11.25V37.5H6.25V27.8125C6.25 25.5625 7.5625 23.5625 9.625 22.6875L11.5625 21.8125L15.5625 25.8125L19.375 22.5625V37.5ZM18.375 20.1875L16.5 19.0625C15.1875 18.25 14.375 16.875 14.375 15.3125V10.0625C14.375 9.875 14.5 9.6875 14.625 9.5625L16.8125 8.0625C17.0625 7.875 17.4375 7.9375 17.6875 8.1875L17.875 8.375C18.625 9.375 19.8125 9.9375 21.0625 10H25C25.375 10 25.625 10.25 25.625 10.625V15.3125C25.625 16.875 24.8125 18.25 23.5 19.0625L21.625 20.1875C20.625 20.8125 19.375 20.8125 18.375 20.1875ZM23.875 37.5H20.625V22.625L24.4375 25.875L28.4375 21.875L30.375 22.75C32.4375 23.625 33.75 25.6875 33.75 27.875V29.375H32.5V28.75C32.5 27.6875 31.6875 26.875 30.625 26.875H29.375C28.3125 26.875 27.5 27.6875 27.5 28.75V29.375H25.625C24.5625 29.375 23.75 30.1875 23.75 31.25V36.875C23.75 37.0625 23.8125 37.3125 23.875 37.5ZM31.25 28.75V29.375H28.75V28.75C28.75 28.375 29 28.125 29.375 28.125H30.625C31 28.125 31.25 28.375 31.25 28.75ZM35 36.875C35 37.25 34.75 37.5 34.375 37.5H25.625C25.25 37.5 25 37.25 25 36.875V33.75H29.375V35H30.625V33.75H35V36.875ZM35 32.5H25V31.25C25 30.875 25.25 30.625 25.625 30.625H34.375C34.75 30.625 35 30.875 35 31.25V32.5Z"
                  fill="white"/>

        </g>
    </symbol>

    <symbol id="gear" viewBox="0 0 34 34">
        <g>
            <g clip-path="url(#clip0)">
                <path d="M33.6866 14.2261L30.4969 12.6315L29.512 9.67692L31.1071 6.48656C31.2159 6.26895 31.1729 6.00545 31.0006 5.83266L28.1673 2.9993C28.0035 2.83555 27.7564 2.7874 27.5434 2.87918L23.775 4.49418L20.8018 3.50373L19.2071 0.313371C19.1109 0.121258 18.9148 0 18.7 0H15.3C15.0852 0 14.8891 0.121258 14.7929 0.313371L13.1982 3.50373L10.225 4.49424L6.45661 2.87924C6.24411 2.78747 5.99702 2.83561 5.83273 2.99937L2.99937 5.83273C2.82652 6.00498 2.78402 6.26848 2.89286 6.48663L4.488 9.67698L3.50313 12.6316L0.313371 14.2261C0.121258 14.3225 0 14.5186 0 14.7334V19.2667C0 19.4815 0.121258 19.6776 0.313371 19.7739L3.50313 21.3685L4.488 24.3231L2.89286 27.5134C2.78408 27.7311 2.82711 27.9946 2.99937 28.1673L5.83273 31.0007C5.99648 31.1645 6.24411 31.2126 6.45661 31.1208L10.225 29.5058L13.1982 30.4963L14.7929 33.6867C14.8892 33.8788 15.0852 34.0001 15.3 34.0001H18.7C18.9148 34.0001 19.1109 33.8788 19.2071 33.6867L20.8018 30.4963L23.775 29.5058L27.5434 31.1208C27.7565 31.2126 28.0035 31.1645 28.1673 31.0007L31.0006 28.1673C31.1735 27.9951 31.216 27.7316 31.1071 27.5134L29.512 24.3231L30.4969 21.3685L33.6866 19.7739C33.8787 19.6775 34 19.4815 34 19.2667V14.7334C34 14.5186 33.8787 14.3225 33.6866 14.2261ZM32.8666 18.9165L29.7794 20.4595C29.6451 20.5269 29.5431 20.6448 29.4955 20.787L28.3622 24.187C28.3146 24.3298 28.3253 24.4856 28.3928 24.6199L29.9103 27.6544L27.6368 29.9279L24.0232 28.3792C23.8957 28.3242 23.7523 28.3174 23.6208 28.3628L20.2208 29.4961C20.0786 29.5431 19.9607 29.6457 19.8933 29.78L18.3497 32.8666H15.6501L14.1059 29.7805C14.0385 29.6463 13.9207 29.5437 13.7784 29.4967L10.3784 28.3633C10.2469 28.3185 10.1042 28.3248 9.97608 28.3797L6.36245 29.9284L4.08896 27.6549L5.60648 24.6204C5.67335 24.4856 5.68471 24.3303 5.63709 24.1875L4.50374 20.7875C4.45612 20.6453 4.35413 20.5274 4.21985 20.46L1.13336 18.9165V15.0835L4.22058 13.5405C4.35486 13.4731 4.45686 13.3552 4.50447 13.213L5.63782 9.81298C5.68544 9.67021 5.67468 9.51436 5.60721 9.38008L4.08963 6.34552L6.36311 4.07203L9.97674 5.62076C10.1036 5.67461 10.247 5.68139 10.3791 5.63716L13.7791 4.5038C13.9213 4.45679 14.0392 4.35419 14.1066 4.21992L15.6502 1.13329H18.3498L19.894 4.21939C19.9615 4.35366 20.0793 4.45626 20.2215 4.50327L23.6215 5.63663C23.7535 5.68198 23.8969 5.67514 24.0239 5.62023L27.6375 4.0715L29.911 6.34498L28.3935 9.37948C28.3266 9.51436 28.3152 9.66961 28.3628 9.81239L29.4962 13.2124C29.5438 13.3546 29.6458 13.4725 29.7801 13.5399L32.8667 15.0835V18.9165H32.8666Z"
                      fill="white"/>
                <path d="M17 7.93311C12.0009 7.93311 7.93335 12.0006 7.93335 16.9997C7.93335 21.9989 12.0009 26.0664 17 26.0664C21.9991 26.0664 26.0666 21.9989 26.0666 16.9997C26.0666 12.0006 21.9991 7.93311 17 7.93311ZM17 24.9331C12.6253 24.9331 9.06664 21.3745 9.06664 16.9997C9.06664 12.625 12.6253 9.06639 17 9.06639C21.3746 9.06639 24.9333 12.6251 24.9333 16.9997C24.9333 21.3744 21.3746 24.9331 17 24.9331Z"
                      fill="white"/>
                <path d="M17 11.3335C13.8754 11.3335 11.3334 13.8756 11.3334 17.0001C11.3334 17.3135 11.5872 17.5668 11.9 17.5668C12.2128 17.5668 12.4666 17.3135 12.4666 17.0001C12.4666 14.5005 14.5004 12.4668 17 12.4668C19.4996 12.4668 21.5334 14.5005 21.5334 17.0001C21.5334 19.4997 19.4996 21.5335 17 21.5335C16.6872 21.5335 16.4334 21.7868 16.4334 22.1001C16.4334 22.4135 16.6872 22.6668 17 22.6668C20.1246 22.6668 22.6666 20.1247 22.6666 17.0001C22.6666 13.8756 20.1246 11.3335 17 11.3335Z"
                      fill="white"/>
                <path d="M17 14.7334C15.7499 14.7334 14.7334 15.75 14.7334 17C14.7334 18.2501 15.75 19.2667 17 19.2667C18.2501 19.2667 19.2666 18.2501 19.2666 17C19.2666 15.7499 18.2501 14.7334 17 14.7334ZM17 18.1334C16.375 18.1334 15.8666 17.6251 15.8666 17C15.8666 16.375 16.3749 15.8667 17 15.8667C17.625 15.8667 18.1334 16.375 18.1334 17C18.1334 17.6251 17.625 18.1334 17 18.1334Z"
                      fill="white"/>
            </g>
            <defs>
                <clipPath id="clip0">
                    <rect width="34" height="34" fill="white"/>
                </clipPath>
            </defs>
        </g>
    </symbol>

    <symbol id="add" viewBox="0 0 19 19">
        <g>
            <path d="M9.5 0C4.26179 0 0 4.26179 0 9.5C0 14.7382 4.26179 19 9.5 19C14.7382 19 19 14.7382 19 9.5C19 4.26179 14.7382 0 9.5 0ZM9.5 18.2083C4.6982 18.2083 0.791654 14.3018 0.791654 9.5C0.791654 4.6982 4.6982 0.791654 9.5 0.791654C14.3018 0.791654 18.2083 4.6982 18.2083 9.5C18.2083 14.3018 14.3018 18.2083 9.5 18.2083Z"
                  fill="#717171"/>
            <path d="M14.6458 9.10434H9.89584V4.35434C9.89584 4.13554 9.71879 3.9585 9.5 3.9585C9.2812 3.9585 9.10415 4.13554 9.10415 4.35434V9.10434H4.35415C4.13536 9.10434 3.95831 9.28139 3.95831 9.50018C3.95831 9.71898 4.13536 9.89603 4.35415 9.89603H9.10415V14.646C9.10415 14.8648 9.2812 15.0419 9.5 15.0419C9.71879 15.0419 9.89584 14.8648 9.89584 14.646V9.89603H14.6458C14.8646 9.89603 15.0417 9.71898 15.0417 9.50018C15.0417 9.28139 14.8646 9.10434 14.6458 9.10434Z"
                  fill="#717171"/>

        </g>
    </symbol>

    <symbol id="event" viewBox="0 0 20 20">
        <g>
            <path d="M17.8125 1.875H15.9375V1.5625C15.9375 1.31386 15.8387 1.0754 15.6629 0.899587C15.4871 0.723772 15.2486 0.625 15 0.625C14.7514 0.625 14.5129 0.723772 14.3371 0.899587C14.1613 1.0754 14.0625 1.31386 14.0625 1.5625V1.875H10.9375V1.5625C10.9375 1.31386 10.8387 1.0754 10.6629 0.899587C10.4871 0.723772 10.2486 0.625 10 0.625C9.75136 0.625 9.5129 0.723772 9.33709 0.899587C9.16127 1.0754 9.0625 1.31386 9.0625 1.5625V1.875H5.9375V1.5625C5.9375 1.31386 5.83873 1.0754 5.66291 0.899587C5.4871 0.723772 5.24864 0.625 5 0.625C4.75136 0.625 4.5129 0.723772 4.33709 0.899587C4.16127 1.0754 4.0625 1.31386 4.0625 1.5625V1.875H2.1875C1.77324 1.87547 1.37608 2.04023 1.08316 2.33316C0.790235 2.62608 0.625465 3.02324 0.625 3.4375V17.8125C0.625465 18.2268 0.790235 18.6239 1.08316 18.9168C1.37608 19.2098 1.77324 19.3745 2.1875 19.375H17.8125C18.2268 19.3745 18.6239 19.2098 18.9168 18.9168C19.2098 18.6239 19.3745 18.2268 19.375 17.8125V3.4375C19.3745 3.02324 19.2098 2.62608 18.9168 2.33316C18.6239 2.04023 18.2268 1.87547 17.8125 1.875ZM14.6875 1.5625C14.6875 1.47962 14.7204 1.40013 14.779 1.34153C14.8376 1.28292 14.9171 1.25 15 1.25C15.0829 1.25 15.1624 1.28292 15.221 1.34153C15.2796 1.40013 15.3125 1.47962 15.3125 1.5625V3.4375C15.3125 3.52038 15.2796 3.59987 15.221 3.65847C15.1624 3.71708 15.0829 3.75 15 3.75C14.9171 3.75 14.8376 3.71708 14.779 3.65847C14.7204 3.59987 14.6875 3.52038 14.6875 3.4375V1.5625ZM9.6875 1.5625C9.6875 1.47962 9.72042 1.40013 9.77903 1.34153C9.83763 1.28292 9.91712 1.25 10 1.25C10.0829 1.25 10.1624 1.28292 10.221 1.34153C10.2796 1.40013 10.3125 1.47962 10.3125 1.5625V3.4375C10.3125 3.52038 10.2796 3.59987 10.221 3.65847C10.1624 3.71708 10.0829 3.75 10 3.75C9.91712 3.75 9.83763 3.71708 9.77903 3.65847C9.72042 3.59987 9.6875 3.52038 9.6875 3.4375V1.5625ZM4.6875 1.5625C4.6875 1.47962 4.72042 1.40013 4.77903 1.34153C4.83763 1.28292 4.91712 1.25 5 1.25C5.08288 1.25 5.16237 1.28292 5.22097 1.34153C5.27958 1.40013 5.3125 1.47962 5.3125 1.5625V3.4375C5.3125 3.52038 5.27958 3.59987 5.22097 3.65847C5.16237 3.71708 5.08288 3.75 5 3.75C4.91712 3.75 4.83763 3.71708 4.77903 3.65847C4.72042 3.59987 4.6875 3.52038 4.6875 3.4375V1.5625ZM2.1875 2.5H4.0625V3.4375C4.0625 3.68614 4.16127 3.9246 4.33709 4.10041C4.5129 4.27623 4.75136 4.375 5 4.375C5.24864 4.375 5.4871 4.27623 5.66291 4.10041C5.83873 3.9246 5.9375 3.68614 5.9375 3.4375V2.5H9.0625V3.4375C9.0625 3.68614 9.16127 3.9246 9.33709 4.10041C9.5129 4.27623 9.75136 4.375 10 4.375C10.2486 4.375 10.4871 4.27623 10.6629 4.10041C10.8387 3.9246 10.9375 3.68614 10.9375 3.4375V2.5H14.0625V3.4375C14.0625 3.68614 14.1613 3.9246 14.3371 4.10041C14.5129 4.27623 14.7514 4.375 15 4.375C15.2486 4.375 15.4871 4.27623 15.6629 4.10041C15.8387 3.9246 15.9375 3.68614 15.9375 3.4375V2.5H17.8125C18.0611 2.50029 18.2993 2.59915 18.4751 2.77491C18.6508 2.95066 18.7497 3.18895 18.75 3.4375V5.625H1.25V3.4375C1.25029 3.18895 1.34915 2.95066 1.52491 2.77491C1.70066 2.59915 1.93895 2.50029 2.1875 2.5ZM17.8125 18.75H2.1875C1.93895 18.7497 1.70066 18.6508 1.52491 18.4751C1.34915 18.2993 1.25029 18.0611 1.25 17.8125V6.25H18.75V17.8125C18.7497 18.0611 18.6508 18.2993 18.4751 18.4751C18.2993 18.6508 18.0611 18.7497 17.8125 18.75Z"
                  fill="#717171"/>
            <path d="M17.1875 8.4375H15.9375C15.8546 8.4375 15.7751 8.47042 15.7165 8.52903C15.6579 8.58763 15.625 8.66712 15.625 8.75V10C15.625 10.0829 15.6579 10.1624 15.7165 10.221C15.7751 10.2796 15.8546 10.3125 15.9375 10.3125H17.1875C17.2704 10.3125 17.3499 10.2796 17.4085 10.221C17.4671 10.1624 17.5 10.0829 17.5 10V8.75C17.5 8.66712 17.4671 8.58763 17.4085 8.52903C17.3499 8.47042 17.2704 8.4375 17.1875 8.4375ZM16.875 9.6875H16.25V9.0625H16.875V9.6875Z"
                  fill="#717171"/>
            <path d="M10.9375 14.6875H9.6875C9.60462 14.6875 9.52513 14.7204 9.46653 14.779C9.40792 14.8376 9.375 14.9171 9.375 15V16.25C9.375 16.3329 9.40792 16.4124 9.46653 16.471C9.52513 16.5296 9.60462 16.5625 9.6875 16.5625H10.9375C11.0204 16.5625 11.0999 16.5296 11.1585 16.471C11.2171 16.4124 11.25 16.3329 11.25 16.25V15C11.25 14.9171 11.2171 14.8376 11.1585 14.779C11.0999 14.7204 11.0204 14.6875 10.9375 14.6875ZM10.625 15.9375H10V15.3125H10.625V15.9375Z"
                  fill="#717171"/>
            <path d="M7.8125 8.4375H6.5625C6.47962 8.4375 6.40013 8.47042 6.34153 8.52903C6.28292 8.58763 6.25 8.66712 6.25 8.75V10C6.25 10.0829 6.28292 10.1624 6.34153 10.221C6.40013 10.2796 6.47962 10.3125 6.5625 10.3125H7.8125C7.89538 10.3125 7.97487 10.2796 8.03347 10.221C8.09208 10.1624 8.125 10.0829 8.125 10V8.75C8.125 8.66712 8.09208 8.58763 8.03347 8.52903C7.97487 8.47042 7.89538 8.4375 7.8125 8.4375ZM7.5 9.6875H6.875V9.0625H7.5V9.6875Z"
                  fill="#717171"/>
            <path d="M4.6875 11.5625H3.4375C3.35462 11.5625 3.27513 11.5954 3.21653 11.654C3.15792 11.7126 3.125 11.7921 3.125 11.875V13.125C3.125 13.2079 3.15792 13.2874 3.21653 13.346C3.27513 13.4046 3.35462 13.4375 3.4375 13.4375H4.6875C4.77038 13.4375 4.84987 13.4046 4.90847 13.346C4.96708 13.2874 5 13.2079 5 13.125V11.875C5 11.7921 4.96708 11.7126 4.90847 11.654C4.84987 11.5954 4.77038 11.5625 4.6875 11.5625ZM4.375 12.8125H3.75V12.1875H4.375V12.8125Z"
                  fill="#717171"/>
            <path d="M7.8125 11.5625H6.5625C6.47962 11.5625 6.40013 11.5954 6.34153 11.654C6.28292 11.7126 6.25 11.7921 6.25 11.875V13.125C6.25 13.2079 6.28292 13.2874 6.34153 13.346C6.40013 13.4046 6.47962 13.4375 6.5625 13.4375H7.8125C7.89538 13.4375 7.97487 13.4046 8.03347 13.346C8.09208 13.2874 8.125 13.2079 8.125 13.125V11.875C8.125 11.7921 8.09208 11.7126 8.03347 11.654C7.97487 11.5954 7.89538 11.5625 7.8125 11.5625ZM7.5 12.8125H6.875V12.1875H7.5V12.8125Z"
                  fill="#717171"/>
            <path d="M4.6875 14.6875H3.4375C3.35462 14.6875 3.27513 14.7204 3.21653 14.779C3.15792 14.8376 3.125 14.9171 3.125 15V16.25C3.125 16.3329 3.15792 16.4124 3.21653 16.471C3.27513 16.5296 3.35462 16.5625 3.4375 16.5625H4.6875C4.77038 16.5625 4.84987 16.5296 4.90847 16.471C4.96708 16.4124 5 16.3329 5 16.25V15C5 14.9171 4.96708 14.8376 4.90847 14.779C4.84987 14.7204 4.77038 14.6875 4.6875 14.6875ZM4.375 15.9375H3.75V15.3125H4.375V15.9375Z"
                  fill="#717171"/>
            <path d="M7.8125 14.6875H6.5625C6.47962 14.6875 6.40013 14.7204 6.34153 14.779C6.28292 14.8376 6.25 14.9171 6.25 15V16.25C6.25 16.3329 6.28292 16.4124 6.34153 16.471C6.40013 16.5296 6.47962 16.5625 6.5625 16.5625H7.8125C7.89538 16.5625 7.97487 16.5296 8.03347 16.471C8.09208 16.4124 8.125 16.3329 8.125 16.25V15C8.125 14.9171 8.09208 14.8376 8.03347 14.779C7.97487 14.7204 7.89538 14.6875 7.8125 14.6875ZM7.5 15.9375H6.875V15.3125H7.5V15.9375Z"
                  fill="#717171"/>
            <path d="M14.4222 9.72593L12.8597 9.48718L12.1579 7.99222C12.1327 7.9385 12.0927 7.89306 12.0426 7.86123C11.9925 7.8294 11.9344 7.8125 11.875 7.8125C11.8156 7.8125 11.7575 7.8294 11.7074 7.86123C11.6573 7.89306 11.6173 7.9385 11.5921 7.99222L10.8906 9.48718L9.32813 9.72593C9.27129 9.73458 9.21795 9.75874 9.17396 9.79575C9.12998 9.83276 9.09705 9.88118 9.07881 9.9357C9.06056 9.99021 9.05771 10.0487 9.07056 10.1047C9.08341 10.1608 9.11146 10.2122 9.15164 10.2533L10.2915 11.4215L10.022 13.0749C10.0127 13.1327 10.0198 13.1919 10.0425 13.2459C10.0652 13.2998 10.1026 13.3463 10.1505 13.3801C10.1983 13.4138 10.2547 13.4334 10.3131 13.4367C10.3716 13.4399 10.4298 13.4267 10.4811 13.3985L11.875 12.628L13.2689 13.3985C13.3202 13.4268 13.3785 13.4402 13.4371 13.437C13.4956 13.4338 13.5521 13.4142 13.6001 13.3804C13.648 13.3467 13.6855 13.3001 13.7082 13.246C13.7309 13.1919 13.738 13.1326 13.7285 13.0747L13.459 11.4213L14.5989 10.2531C14.639 10.212 14.6671 10.1606 14.6799 10.1045C14.6928 10.0485 14.6899 9.99001 14.6717 9.9355C14.6535 9.88099 14.6205 9.83256 14.5765 9.79555C14.5326 9.75855 14.4792 9.73439 14.4224 9.72574L14.4222 9.72593ZM12.9013 11.0977C12.8672 11.1327 12.8417 11.1752 12.827 11.2219C12.8123 11.2685 12.8087 11.318 12.8166 11.3662L13.008 12.5401L12.0261 11.9971C11.9798 11.9716 11.9278 11.9581 11.8749 11.9581C11.822 11.9581 11.77 11.9716 11.7237 11.9971L10.7419 12.5401L10.9333 11.3662C10.9412 11.318 10.9376 11.2685 10.9229 11.2219C10.9081 11.1752 10.8827 11.1327 10.8485 11.0977L10.0234 10.2519L11.1497 10.08C11.2004 10.0723 11.2485 10.0522 11.2896 10.0214C11.3307 9.99072 11.3636 9.95035 11.3854 9.9039L11.875 8.8605L12.3646 9.9037C12.3864 9.95015 12.4194 9.99052 12.4605 10.0212C12.5016 10.052 12.5496 10.0721 12.6003 10.0798L13.7266 10.2517L12.9013 11.0977Z"
                  fill="#717171"/>
            <path d="M17.1875 11.5625H15.9375C15.8546 11.5625 15.7751 11.5954 15.7165 11.654C15.6579 11.7126 15.625 11.7921 15.625 11.875V13.125C15.625 13.2079 15.6579 13.2874 15.7165 13.346C15.7751 13.4046 15.8546 13.4375 15.9375 13.4375H17.1875C17.2704 13.4375 17.3499 13.4046 17.4085 13.346C17.4671 13.2874 17.5 13.2079 17.5 13.125V11.875C17.5 11.7921 17.4671 11.7126 17.4085 11.654C17.3499 11.5954 17.2704 11.5625 17.1875 11.5625ZM16.875 12.8125H16.25V12.1875H16.875V12.8125Z"
                  fill="#717171"/>
            <path d="M17.1875 14.6875H15.9375C15.8546 14.6875 15.7751 14.7204 15.7165 14.779C15.6579 14.8376 15.625 14.9171 15.625 15V16.25C15.625 16.3329 15.6579 16.4124 15.7165 16.471C15.7751 16.5296 15.8546 16.5625 15.9375 16.5625H17.1875C17.2704 16.5625 17.3499 16.5296 17.4085 16.471C17.4671 16.4124 17.5 16.3329 17.5 16.25V15C17.5 14.9171 17.4671 14.8376 17.4085 14.779C17.3499 14.7204 17.2704 14.6875 17.1875 14.6875ZM16.875 15.9375H16.25V15.3125H16.875V15.9375Z"
                  fill="#717171"/>
            <path d="M14.0625 14.6875H12.8125C12.7296 14.6875 12.6501 14.7204 12.5915 14.779C12.5329 14.8376 12.5 14.9171 12.5 15V16.25C12.5 16.3329 12.5329 16.4124 12.5915 16.471C12.6501 16.5296 12.7296 16.5625 12.8125 16.5625H14.0625C14.1454 16.5625 14.2249 16.5296 14.2835 16.471C14.3421 16.4124 14.375 16.3329 14.375 16.25V15C14.375 14.9171 14.3421 14.8376 14.2835 14.779C14.2249 14.7204 14.1454 14.6875 14.0625 14.6875ZM13.75 15.9375H13.125V15.3125H13.75V15.9375Z"
                  fill="#717171"/>

        </g>
    </symbol>

    <symbol id="folder" viewBox="0 0 19 19">
        <g>
            <path d="M17.1 4.142V3.48333C17.099 2.60932 16.3907 1.90105 15.5167 1.9H10.1333V1.58333C10.1323 0.709316 9.42402 0.00104694 8.55 0H1.58333C0.709316 0.00104694 0.00104694 0.709316 0 1.58333V9.18333C0 9.35822 0.141776 9.5 0.316667 9.5C0.491557 9.5 0.633333 9.35822 0.633333 9.18333V1.58333C0.633333 1.05866 1.05866 0.633333 1.58333 0.633333H8.55C9.07467 0.633333 9.5 1.05866 9.5 1.58333V2.21667C9.5 2.39156 9.64178 2.53333 9.81667 2.53333H15.5167C16.0413 2.53333 16.4667 2.95866 16.4667 3.48333V4.11667H7.6C7.42511 4.11667 7.28333 4.25844 7.28333 4.43333C7.28333 4.60822 7.42511 4.75 7.6 4.75H16.7833C17.6574 4.75105 18.3656 5.45932 18.3667 6.33333V15.5167C18.3656 16.3907 17.6574 17.099 16.7833 17.1H10.7667C10.5918 17.1 10.45 17.2418 10.45 17.4167C10.45 17.5916 10.5918 17.7333 10.7667 17.7333H16.7833C18.007 17.7319 18.9986 16.7403 19 15.5167V6.33333C18.9979 5.23272 18.1892 4.30004 17.1 4.142Z"
                  fill="#717171"/>
            <path d="M6.01667 4.75003C6.19156 4.75003 6.33334 4.60826 6.33334 4.43337C6.33334 4.25848 6.19156 4.1167 6.01667 4.1167H4.75C4.57511 4.1167 4.43333 4.25848 4.43333 4.43337C4.43333 4.60826 4.57511 4.75003 4.75 4.75003H6.01667Z"
                  fill="#717171"/>
            <path d="M1.26667 10.4499V11.4582C0.888458 11.5919 0.634999 11.9488 0.633336 12.3499V17.0999C0.634383 18.1488 1.48443 18.9989 2.53334 18.9999H7.6C8.64891 18.9989 9.49896 18.1488 9.5 17.0999V12.3499C9.49834 11.9488 9.24488 11.5919 8.86667 11.4582V10.4499C8.86667 8.35122 7.16535 6.6499 5.06667 6.6499C2.96799 6.6499 1.26667 8.35122 1.26667 10.4499ZM8.86667 17.0999C8.86667 17.7995 8.29956 18.3666 7.6 18.3666H2.53334C1.83378 18.3666 1.26667 17.7995 1.26667 17.0999V12.3499C1.26667 12.175 1.40845 12.0332 1.58334 12.0332H8.55C8.72489 12.0332 8.86667 12.175 8.86667 12.3499V17.0999ZM6.96667 11.3999H3.16667V10.4499C3.16667 9.40056 4.01733 8.5499 5.06667 8.5499C6.11601 8.5499 6.96667 9.40056 6.96667 10.4499V11.3999ZM5.06667 7.28324C6.81478 7.28516 8.23142 8.7018 8.23334 10.4499V11.3999H7.6V10.4499C7.6 9.05078 6.46579 7.91657 5.06667 7.91657C3.66755 7.91657 2.53334 9.05078 2.53334 10.4499V11.3999H1.9V10.4499C1.90192 8.7018 3.31856 7.28516 5.06667 7.28324Z"
                  fill="#717171"/>
            <path d="M5.88145 13.5969C5.38108 13.1849 4.65041 13.2171 4.18823 13.6716C3.72605 14.126 3.6815 14.856 4.085 15.3633L3.92667 16.3104C3.88076 16.586 3.95845 16.8678 4.13909 17.0809C4.31972 17.2939 4.58498 17.4167 4.86432 17.4166H5.26902C5.54831 17.4166 5.81348 17.2938 5.99404 17.0807C6.1746 16.8677 6.25225 16.5859 6.20636 16.3104L6.04802 15.3636C6.23321 15.1394 6.33414 14.8574 6.33334 14.5666C6.33372 14.1924 6.16823 13.8373 5.88145 13.5969ZM5.3979 15.3136L5.58157 16.4146C5.59684 16.5065 5.57092 16.6004 5.51072 16.6714C5.45051 16.7424 5.36211 16.7833 5.26902 16.7832H4.86432C4.77123 16.7833 4.68283 16.7424 4.62262 16.6714C4.56241 16.6004 4.5365 16.5065 4.55177 16.4146L4.73544 15.3136C4.75316 15.2083 4.71661 15.1011 4.63822 15.0286C4.47732 14.8821 4.40375 14.6627 4.44378 14.4488C4.49424 14.1927 4.69441 13.9926 4.95045 13.9421C4.98886 13.9358 5.02775 13.9328 5.06667 13.9332C5.21553 13.9326 5.35971 13.9852 5.47327 14.0814C5.61686 14.2017 5.69987 14.3793 5.7 14.5666C5.70001 14.7428 5.6256 14.9108 5.49512 15.0292C5.41694 15.1016 5.3804 15.2085 5.3979 15.3136Z"
                  fill="#717171"/>

        </g>
    </symbol>

    <symbol id="pdf" viewBox="0 0 22 22">
        <g>
            <svg width="22" height="22" viewBox="0 0 22 22" fill="none" xmlns="http://www.w3.org/2000/svg">
                <path d="M19.3259 4.62266L19.0334 4.33021L15.2043 0.501069L14.9118 0.208621C14.7794 0.0762414 14.5959 0 14.4081 0H3.39976C2.9499 0 2.46552 0.347448 2.46552 1.10986V14.7931V21.0658V21.2414C2.46552 21.5589 2.7849 21.8684 3.16269 21.9659C3.18166 21.9708 3.19986 21.978 3.21959 21.9818C3.27876 21.9936 3.33907 22 3.39976 22H18.6002C18.6609 22 18.7212 21.9936 18.7804 21.9818C18.8001 21.978 18.8183 21.9708 18.8373 21.9659C19.2151 21.8684 19.5345 21.5589 19.5345 21.2414V21.0658V14.7931V5.302C19.5345 5.01107 19.4996 4.79638 19.3259 4.62266ZM18.1822 4.55172H14.9828V1.35224L18.1822 4.55172ZM3.39976 21.2414C3.37283 21.2414 3.34855 21.2315 3.32466 21.2228C3.26548 21.1947 3.22414 21.1356 3.22414 21.0658V15.5517H18.7759V21.0658C18.7759 21.1356 18.7345 21.1943 18.6753 21.2228C18.6514 21.2315 18.6272 21.2414 18.6002 21.2414H3.39976ZM3.22414 14.7931V1.10986C3.22414 1.02755 3.23666 0.758621 3.39976 0.758621H14.2461C14.2336 0.806414 14.2241 0.855724 14.2241 0.906931V5.31034H18.6276C18.6788 5.31034 18.7277 5.30086 18.7755 5.28834C18.7755 5.29403 18.7759 5.29631 18.7759 5.302V14.7931H3.22414Z"
                      fill="#A52417"/>
                <path d="M8.36076 16.9717C8.23445 16.8681 8.09183 16.79 7.9329 16.7384C7.77397 16.6864 7.61314 16.6606 7.45079 16.6606H6.35155V20.4826H6.974V19.103H7.43562C7.6359 19.103 7.81948 19.0738 7.98524 19.015C8.151 18.9562 8.29286 18.8732 8.41045 18.7662C8.52804 18.6592 8.61945 18.5269 8.68545 18.3694C8.75107 18.212 8.78407 18.0368 8.78407 17.843C8.78407 17.6597 8.745 17.4947 8.66724 17.3476C8.58948 17.2004 8.48707 17.0756 8.36076 16.9717ZM8.12483 18.2344C8.08652 18.3399 8.03683 18.4218 7.97462 18.4806C7.91242 18.5394 7.84414 18.5819 7.76979 18.6076C7.69545 18.6334 7.61997 18.6467 7.5441 18.6467H6.97362V17.1325H7.44017C7.5991 17.1325 7.72693 17.1575 7.82404 17.2076C7.92076 17.2577 7.99586 17.3199 8.04973 17.3942C8.10321 17.4686 8.13848 17.5463 8.15593 17.6275C8.173 17.7087 8.18173 17.7804 8.18173 17.8426C8.18173 17.9985 8.16276 18.129 8.12483 18.2344Z"
                      fill="#A52417"/>
                <path d="M12.1205 17.2205C11.9597 17.0513 11.7575 16.9152 11.5136 16.8135C11.2697 16.7119 10.9871 16.6606 10.6658 16.6606H9.51462V20.4826H10.9613C11.0095 20.4826 11.0838 20.4765 11.1843 20.4644C11.2845 20.4522 11.3952 20.4249 11.5162 20.3813C11.6372 20.3381 11.7624 20.2732 11.8921 20.1867C12.0219 20.1002 12.1383 19.9819 12.2422 19.8313C12.3462 19.6807 12.4315 19.4941 12.499 19.2711C12.5666 19.048 12.6003 18.7791 12.6003 18.4646C12.6003 18.2363 12.5605 18.014 12.4812 17.7982C12.4012 17.5827 12.2813 17.3901 12.1205 17.2205ZM11.6668 19.6215C11.4802 19.8912 11.176 20.0259 10.7542 20.0259H10.1371V17.1321H10.5001C10.7974 17.1321 11.0394 17.1712 11.2261 17.249C11.4127 17.3267 11.5606 17.4287 11.6695 17.5551C11.7783 17.6814 11.8516 17.8221 11.8899 17.9776C11.9278 18.1331 11.9468 18.2905 11.9468 18.4495C11.9468 18.9612 11.8534 19.3522 11.6668 19.6215Z"
                      fill="#A52417"/>
                <path d="M13.5027 20.4826H14.1354V18.7609H15.7327V18.3357H14.1354V17.1325H15.8931V16.6606H13.5027V20.4826Z"
                      fill="#A52417"/>
                <path d="M14.5761 8.70954C14.2276 8.70954 13.7997 8.75506 13.3024 8.84533C12.6083 8.10871 11.8838 7.03299 11.3725 5.97699C11.8796 3.84185 11.6259 3.53954 11.514 3.39692C11.3949 3.2452 11.2268 2.99902 11.0357 2.99902C10.9556 2.99902 10.7371 3.03544 10.6503 3.06426C10.4318 3.13709 10.3142 3.30551 10.2201 3.52513C9.95197 4.15213 10.3199 5.22102 10.6985 6.04489C10.3749 7.33189 9.83211 8.87227 9.26162 10.1225C7.82404 10.781 7.06048 11.4277 6.99145 12.0448C6.96642 12.2694 7.01952 12.599 7.41438 12.8952C7.52249 12.976 7.64917 13.0189 7.78117 13.0189C8.11307 13.0189 8.44838 12.7647 8.83642 12.2197C9.11938 11.8222 9.42321 11.2801 9.74031 10.6072C10.7561 10.1631 12.0128 9.76175 13.0889 9.53682C13.6882 10.1122 14.2249 10.4035 14.6861 10.4035C15.026 10.4035 15.3173 10.2473 15.5282 9.95178C15.7478 9.64416 15.7979 9.36878 15.6761 9.13247C15.5301 8.84837 15.1701 8.70954 14.5761 8.70954ZM7.78952 12.3786C7.612 12.2424 7.62224 12.1506 7.62604 12.1161C7.64955 11.9052 7.97993 11.5309 8.79052 11.0753C8.17604 12.2102 7.84604 12.3608 7.78952 12.3786ZM10.8999 3.68406C10.9162 3.67875 11.2962 4.10168 10.9363 4.90392C10.3954 4.35051 10.8627 3.69658 10.8999 3.68406ZM10.1158 9.76289C10.5008 8.84533 10.8589 7.8322 11.1301 6.89378C11.5561 7.65923 12.0678 8.40192 12.5798 8.99668C11.7704 9.18671 10.9086 9.45489 10.1158 9.76289ZM15.0093 9.5812C14.8925 9.74468 14.6391 9.74847 14.5503 9.74847C14.3482 9.74847 14.2727 9.62823 13.9636 9.3904C14.2184 9.35778 14.4589 9.34944 14.6505 9.34944C14.9877 9.34944 15.0495 9.39913 15.0962 9.42416C15.0878 9.45109 15.0658 9.50192 15.0093 9.5812Z"
                      fill="#A52417"/>
            </svg>

        </g>
    </symbol>

    <symbol id="target" viewBox="0 0 20 20">
        <g>
            <path d="M0.333333 0C0.14925 0 0 0.14925 0 0.333333V4H0.666667V0.666667H4V0H0.333333Z" fill="#717171"/>
            <path d="M19.6666 0H16V0.666667H19.3333V4H20V0.333333C20 0.14925 19.8507 0 19.6666 0Z" fill="#717171"/>
            <path d="M0.666667 19.3333V16H0V19.6667C0 19.8508 0.14925 20 0.333333 20H4V19.3333H0.666667Z"
                  fill="#717171"/>
            <path d="M19.3333 16V19.3333H16V20H19.6666C19.8507 20 20 19.8508 20 19.6667V16H19.3333Z" fill="#717171"/>
            <path d="M19.325 9.66667C19.1448 4.77729 15.2227 0.855167 10.3333 0.675V0H9.66667V0.675C4.77729 0.855167 0.855167 4.77729 0.675 9.66667H0V10.3333H0.675C0.855167 15.2227 4.77729 19.1448 9.66667 19.325V20H10.3333V19.325C15.2227 19.1448 19.1448 15.2227 19.325 10.3333H20V9.66667H19.325ZM2.92767 15C2.70867 14.6911 2.51017 14.3682 2.33333 14.0333V12.7667C2.33333 12.1592 2.82583 11.6667 3.43333 11.6667H4.17433L3.69067 12.876C3.64112 12.9999 3.67025 13.1414 3.76467 13.2357L4.43133 13.9023C4.5615 14.0325 4.7725 14.0325 4.90267 13.9023L5.56933 13.2357C5.66375 13.1414 5.69288 12.9999 5.64333 12.876L5.159 11.6667H5.9C6.5075 11.6667 7 12.1592 7 12.7667V15H2.92767ZM5.12633 8.798L6.31767 9.513C6.184 10.329 5.17833 11 4.66667 11C3.92321 10.8734 3.30475 10.3578 3.04633 9.64933C3.617 9.60233 4.64733 9.42933 5.12633 8.798ZM3.01838 8.98067C3.10779 7.86358 3.63346 7.33333 4.66667 7.33333C5.61267 7.33333 6.13333 7.78067 6.28233 8.714L5.17167 8.04733C5.01379 7.95263 4.80904 8.00383 4.71433 8.16171C4.70183 8.18254 4.69167 8.20463 4.684 8.22767C4.51533 8.73333 3.60471 8.925 3.01838 8.98067ZM4.942 12.9197L4.66667 13.1953L4.39133 12.9197L4.66667 12.2307L4.942 12.9197ZM10.3333 18.6583V18H9.66667V18.6583C7.2695 18.5664 5.01829 17.4828 3.451 15.6667H7.33333C7.51742 15.6667 7.66667 15.5174 7.66667 15.3333V13.6667H12.3333V15.3333C12.3333 15.5174 12.4826 15.6667 12.6667 15.6667H16.549C14.9817 17.4828 12.7305 18.5664 10.3333 18.6583ZM10.4597 6.798L11.651 7.513C11.5173 8.329 10.5117 9 10 9C9.25654 8.87337 8.63808 8.35783 8.37967 7.64933C8.95033 7.60233 9.98067 7.42933 10.4597 6.798ZM8.35171 6.98067C8.44112 5.86358 8.96679 5.33333 10 5.33333C10.946 5.33333 11.4667 5.78067 11.6157 6.714L10.505 6.04733C10.3471 5.95263 10.1424 6.00383 10.0477 6.16171C10.0352 6.18254 10.025 6.20463 10.0173 6.22767C9.84867 6.73333 8.93804 6.925 8.35171 6.98067ZM10.2753 10.9197L10 11.1953L9.72467 10.9197L10 10.2307L10.2753 10.9197ZM9.50767 9.66667L9.024 10.876C8.97446 10.9999 9.00358 11.1414 9.098 11.2357L9.76467 11.9023C9.89483 12.0325 10.1058 12.0325 10.236 11.9023L10.9027 11.2357C10.9971 11.1414 11.0262 10.9999 10.9767 10.876L10.4923 9.66667H11.2333C11.8408 9.66667 12.3333 10.1592 12.3333 10.7667V13H7.66667V10.7667C7.66667 10.1592 8.15917 9.66667 8.76667 9.66667H9.50767ZM17.6667 14.0333C17.4898 14.3682 17.2913 14.6911 17.0723 15H13V12.7667C13 12.1592 13.4925 11.6667 14.1 11.6667H14.841L14.3573 12.876C14.3078 12.9999 14.3369 13.1414 14.4313 13.2357L15.098 13.9023C15.2282 14.0325 15.4392 14.0325 15.5693 13.9023L16.236 13.2357C16.3304 13.1414 16.3595 12.9999 16.31 12.876L15.8257 11.6667H16.5667C17.1742 11.6667 17.6667 12.1592 17.6667 12.7667V14.0333ZM15.793 8.798L16.9843 9.513C16.8507 10.329 15.845 11 15.3333 11C14.5899 10.8734 13.9714 10.3578 13.713 9.64933C14.2837 9.60233 15.314 9.42933 15.793 8.798ZM13.685 8.98067C13.7745 7.86358 14.3001 7.33333 15.3333 7.33333C16.2793 7.33333 16.8 7.78067 16.949 8.714L15.8383 8.04733C15.6805 7.95263 15.4757 8.00383 15.381 8.16171C15.3685 8.18254 15.3583 8.20463 15.3507 8.22767C15.182 8.73333 14.2714 8.925 13.685 8.98067ZM15.6087 12.9197L15.3333 13.1953L15.058 12.9197L15.3333 12.2307L15.6087 12.9197ZM18.6583 10.3333C18.6312 11.0582 18.5127 11.7768 18.3057 12.472C18.179 11.7036 17.5607 11.1108 16.7877 11.0163C17.3079 10.6069 17.6279 9.99425 17.6667 9.33333C17.6667 7.12933 16.3977 6.66667 15.3333 6.66667C14.269 6.66667 13 7.12933 13 9.33333C13.0388 9.99425 13.3588 10.6069 13.879 11.0163C13.6078 11.0498 13.348 11.1458 13.1203 11.297C13.078 11.3253 13.0393 11.357 13 11.3887V10.7667C13.0018 9.876 12.3383 9.12425 11.4543 9.01533C11.9743 8.60612 12.2943 7.99388 12.3333 7.33333C12.3333 5.12933 11.0643 4.66667 10 4.66667C8.93567 4.66667 7.66667 5.12933 7.66667 7.33333C7.70542 7.99425 8.02542 8.60692 8.54567 9.01633C7.66208 9.12521 6.99871 9.87638 7 10.7667V11.3873C6.96067 11.356 6.922 11.324 6.87967 11.2957C6.652 11.1445 6.39225 11.0484 6.121 11.015C6.64092 10.6059 6.96088 9.99379 7 9.33333C7 7.12933 5.731 6.66667 4.66667 6.66667C3.60233 6.66667 2.33333 7.12933 2.33333 9.33333C2.37208 9.99425 2.69208 10.6069 3.21233 11.0163C2.43929 11.1108 1.82104 11.7036 1.69433 12.472C1.48729 11.7768 1.36879 11.0582 1.34167 10.3333H2V9.66667H1.34167C1.52083 5.14521 5.14521 1.52083 9.66667 1.34167V2H10.3333V1.34167C14.8548 1.52083 18.4792 5.14521 18.6583 9.66667H18V10.3333H18.6583Z"
                  fill="#717171"/>


        </g>
    </symbol>

    <symbol id="loupe" viewBox="0 0 24 24">
        <g>
            <path d="M14.5312 8.90625C14.2725 8.90625 14.0625 9.11625 14.0625 9.375C14.0625 9.63375 14.2725 9.84375 14.5312 9.84375C14.79 9.84375 15 9.63375 15 9.375C15 9.11625 14.79 8.90625 14.5312 8.90625Z"
                  fill="#717171"/>
            <path d="M23.4507 20.7993L17.1938 14.5425C18.2131 13.0071 18.75 11.2291 18.75 9.375C18.75 4.20563 14.5444 0 9.375 0C4.20563 0 0 4.20563 0 9.375C0 14.5444 4.20563 18.75 9.375 18.75C11.2292 18.75 13.0072 18.213 14.5425 17.1938L16.2719 18.9233C16.2721 18.9235 16.2724 18.9238 16.2727 18.924L20.7993 23.4507C21.1536 23.8049 21.6243 24 22.125 24C22.6257 24 23.0964 23.8049 23.4505 23.4508C23.8049 23.0968 24 22.626 24 22.125C24 21.624 23.8049 21.1532 23.4507 20.7993ZM14.322 16.206C14.322 16.206 14.322 16.206 14.3219 16.206C12.875 17.257 11.1645 17.8125 9.375 17.8125C4.72256 17.8125 0.9375 14.0274 0.9375 9.375C0.9375 4.72256 4.72256 0.9375 9.375 0.9375C14.0274 0.9375 17.8125 4.72256 17.8125 9.375C17.8125 11.1645 17.257 12.875 16.206 14.322C15.6802 15.0463 15.0464 15.6802 14.322 16.206ZM15.3054 16.6309C15.7906 16.234 16.2341 15.7905 16.6309 15.3054L17.9608 16.6353C17.5564 17.1127 17.1127 17.5564 16.6353 17.9608L15.3054 16.6309ZM22.7878 22.7878C22.6106 22.965 22.3752 23.0625 22.125 23.0625C21.8748 23.0625 21.6394 22.965 21.4622 22.7878L17.3 18.6255C17.7747 18.2181 18.2181 17.7747 18.6255 17.3L22.7879 21.4624C22.965 21.6393 23.0625 21.8746 23.0625 22.125C23.0625 22.3754 22.965 22.6107 22.7878 22.7878Z"
                  fill="#717171"/>
            <path d="M9.375 1.875C5.23945 1.875 1.875 5.23945 1.875 9.375C1.875 13.5105 5.23945 16.875 9.375 16.875C13.5105 16.875 16.875 13.5105 16.875 9.375C16.875 5.23945 13.5105 1.875 9.375 1.875ZM9.375 15.9375C5.75644 15.9375 2.8125 12.9936 2.8125 9.375C2.8125 5.75644 5.75644 2.8125 9.375 2.8125C12.9936 2.8125 15.9375 5.75644 15.9375 9.375C15.9375 12.9936 12.9936 15.9375 9.375 15.9375Z"
                  fill="#717171"/>
            <path d="M14.6281 7.3628C14.2244 6.31223 13.5216 5.41402 12.5956 4.76531C11.6475 4.10109 10.5338 3.75 9.375 3.75C9.11616 3.75 8.90625 3.95991 8.90625 4.21875C8.90625 4.47759 9.11616 4.6875 9.375 4.6875C11.3015 4.6875 13.0608 5.89772 13.7529 7.69908C13.8246 7.88545 14.0022 7.99983 14.1906 7.99983C14.2465 7.99983 14.3034 7.98975 14.3586 7.96852C14.6003 7.87566 14.7209 7.60448 14.6281 7.3628Z"
                  fill="#717171"/>

        </g>
    </symbol>

    <symbol id="copy" viewBox="0 0 30 30">
        <g>
            <g clip-path="url(#clip0)">
                <path d="M28.7303 3.43758C28.7303 1.53877 27.1915 0 25.293 0H10.9178C9.01924 0 7.48047 1.53877 7.48047 3.43758V20.3126C7.48047 22.2112 9.01924 23.7499 10.9178 23.7499H25.293C27.1915 23.7499 28.7303 22.2112 28.7303 20.3126V3.43758ZM22.7929 18.1249H13.4179C12.9004 18.1249 12.4804 17.7049 12.4804 17.1874C12.4804 16.6699 12.9004 16.2499 13.4179 16.2499H22.7929C23.3104 16.2499 23.7304 16.6699 23.7304 17.1874C23.7304 17.7049 23.3104 18.1249 22.7929 18.1249ZM22.7929 14.3749H13.4179C12.9004 14.3749 12.4804 13.9549 12.4804 13.4374C12.4804 12.9199 12.9004 12.4999 13.4179 12.4999H22.7929C23.3104 12.4999 23.7304 12.9199 23.7304 13.4374C23.7304 13.9549 23.3104 14.3749 22.7929 14.3749ZM22.7929 10.6249H13.4179C12.9004 10.6249 12.4804 10.2049 12.4804 9.68742C12.4804 9.16992 12.9004 8.74992 13.4179 8.74992H22.7929C23.3104 8.74992 23.7304 9.16992 23.7304 9.68742C23.7304 10.2049 23.3104 10.6249 22.7929 10.6249Z"
                      fill="#DCDCDC"/>
                <path d="M10.9179 25.625C7.98798 25.625 5.60555 23.2414 5.60555 20.3127V3.43765C5.60555 3.33008 5.63049 3.23006 5.63667 3.125H4.66805C2.77176 3.125 1.23047 4.66629 1.23047 6.56258V26.5625C1.23047 28.4588 2.77176 30.0001 4.66805 30.0001H19.668C21.5643 30.0001 23.1054 28.4588 23.1054 26.5625V25.625H10.9179Z"
                      fill="#DCDCDC"/>
            </g>
            <defs>
                <clipPath id="clip0">
                    <rect width="30" height="30" fill="white"/>
                </clipPath>
            </defs>
        </g>
    </symbol>

    <symbol id="bin" viewBox="0 0 27 27">
        <g>
            <path d="M25.7168 4.65798C25.6115 4.55276 25.4767 4.49987 25.3128 4.49987H19.8808L18.6504 1.56448C18.4747 1.13079 18.1582 0.761615 17.7014 0.456907C17.2442 0.152261 16.7811 0 16.3125 0H10.6873C10.2187 0 9.75569 0.152261 9.29866 0.456907C8.84157 0.761615 8.52516 1.13072 8.34932 1.56448L7.11885 4.49987H1.68719C1.52299 4.49987 1.3884 4.55276 1.28287 4.65798C1.17764 4.76345 1.12476 4.89828 1.12476 5.0623V6.18743C1.12476 6.35145 1.1774 6.48628 1.28287 6.59157C1.3884 6.69697 1.52323 6.74968 1.68719 6.74968H3.37457V23.4843C3.37457 24.4572 3.64997 25.2862 4.2007 25.9715C4.75157 26.6574 5.41368 26.9999 6.18718 26.9999H20.8125C21.5862 26.9999 22.2483 26.6455 22.7991 25.9368C23.3498 25.2275 23.625 24.3868 23.625 23.4142V6.74968H25.3127C25.4766 6.74968 25.6115 6.69697 25.7168 6.59157C25.8219 6.48634 25.875 6.35145 25.875 6.18743V5.0623C25.8751 4.89828 25.822 4.76345 25.7168 4.65798ZM10.4237 2.44295C10.5057 2.33755 10.6053 2.2729 10.7225 2.24963H16.2948C16.412 2.27308 16.5118 2.33767 16.5937 2.44295L17.4377 4.49962H9.56236L10.4237 2.44295ZM21.3752 23.4143C21.3752 23.672 21.3343 23.9095 21.2521 24.1261C21.17 24.3427 21.0848 24.501 20.9972 24.6006C20.9091 24.7004 20.848 24.75 20.8126 24.75H6.18724C6.15209 24.75 6.09089 24.7004 6.00278 24.6006C5.9148 24.501 5.82977 24.3427 5.7477 24.1261C5.66575 23.9095 5.62475 23.6718 5.62475 23.4143V6.74968H21.3751V23.4143H21.3752Z"
                  fill="white"/>
            <path d="M8.43744 21.3752H9.56237C9.72658 21.3752 9.86148 21.3225 9.9667 21.2171C10.0719 21.1113 10.1248 20.9769 10.1248 20.8126V10.6873C10.1248 10.5233 10.0719 10.3885 9.9667 10.2829C9.86117 10.1777 9.72664 10.125 9.56237 10.125H8.43744C8.27323 10.125 8.13858 10.1776 8.03311 10.2829C7.92777 10.3885 7.875 10.5233 7.875 10.6873V20.8126C7.875 20.9769 7.92758 21.1114 8.03311 21.2171C8.13858 21.3225 8.27323 21.3752 8.43744 21.3752Z"
                  fill="white"/>
            <path d="M12.9374 21.3752H14.0624C14.2265 21.3752 14.3614 21.3225 14.4665 21.2171C14.5723 21.1113 14.6247 20.9769 14.6247 20.8126V10.6873C14.6247 10.5233 14.5722 10.3885 14.4665 10.2829C14.3614 10.1777 14.2265 10.125 14.0624 10.125H12.9374C12.7734 10.125 12.6386 10.1776 12.5331 10.2829C12.4276 10.3885 12.375 10.5233 12.375 10.6873V20.8126C12.375 20.9769 12.4276 21.1114 12.5331 21.2171C12.6385 21.3225 12.7734 21.3752 12.9374 21.3752Z"
                  fill="white"/>
            <path d="M17.4376 21.3752H18.5623C18.7266 21.3752 18.8615 21.3225 18.9668 21.2171C19.0722 21.1113 19.1246 20.9769 19.1246 20.8126V10.6873C19.1246 10.5233 19.0721 10.3885 18.9668 10.2829C18.8615 10.1777 18.7266 10.125 18.5623 10.125H17.4376C17.2732 10.125 17.1388 10.1776 17.033 10.2829C16.9276 10.3885 16.875 10.5233 16.875 10.6873V20.8126C16.875 20.9769 16.9276 21.1114 17.033 21.2171C17.1388 21.3225 17.2732 21.3752 17.4376 21.3752Z"
                  fill="white"/>

        </g>
    </symbol>

    <symbol id="checklist" viewBox="0 0 20 20">
        <g>
            <path d="M15.6252 5.9375H10.0001C9.78435 5.9375 9.60947 6.11238 9.60947 6.32812C9.60947 6.54387 9.78435 6.71875 10.0001 6.71875H15.6252C15.8409 6.71875 16.0158 6.54387 16.0158 6.32812C16.0158 6.11238 15.8409 5.9375 15.6252 5.9375Z"
                  fill="#717171"/>
            <path d="M14.2583 7.92695C14.1857 7.8543 14.0849 7.8125 13.9821 7.8125C13.8794 7.8125 13.7786 7.8543 13.706 7.92695C13.6333 7.99961 13.5915 8.10039 13.5915 8.20312C13.5915 8.30586 13.6333 8.40664 13.706 8.47929C13.7786 8.55195 13.8794 8.59375 13.9821 8.59375C14.0849 8.59375 14.1857 8.55195 14.2583 8.47929C14.331 8.40664 14.3728 8.30586 14.3728 8.20312C14.3728 8.10039 14.331 7.99961 14.2583 7.92695Z"
                  fill="#717171"/>
            <path d="M10.2758 1.79414C10.2032 1.72148 10.1024 1.67969 9.99965 1.67969C9.89692 1.67969 9.79614 1.72148 9.72348 1.79414C9.65082 1.8668 9.60903 1.96758 9.60903 2.07031C9.60903 2.17305 9.65082 2.27383 9.72348 2.34648C9.79614 2.41914 9.89692 2.46094 9.99965 2.46094C10.1024 2.46094 10.2032 2.41914 10.2758 2.34648C10.3485 2.27383 10.3903 2.17305 10.3903 2.07031C10.3903 1.96758 10.3485 1.8668 10.2758 1.79414Z"
                  fill="#717171"/>
            <path d="M12.339 7.8125H10.0001C9.78435 7.8125 9.60947 7.98738 9.60947 8.20312C9.60947 8.41887 9.78435 8.59375 10.0001 8.59375H12.339C12.5548 8.59375 12.7297 8.41887 12.7297 8.20312C12.7297 7.98738 12.5548 7.8125 12.339 7.8125Z"
                  fill="#717171"/>
            <path d="M15.6252 10.1562H10.0001C9.78435 10.1562 9.60947 10.3311 9.60947 10.5469C9.60947 10.7626 9.78435 10.9375 10.0001 10.9375H15.6252C15.8409 10.9375 16.0158 10.7626 16.0158 10.5469C16.0158 10.3311 15.8409 10.1562 15.6252 10.1562Z"
                  fill="#717171"/>
            <path d="M14.2583 12.1457C14.1857 12.073 14.0849 12.0312 13.9821 12.0312C13.8794 12.0312 13.7786 12.073 13.706 12.1457C13.6333 12.2184 13.5915 12.3191 13.5915 12.4219C13.5915 12.5246 13.6333 12.6254 13.706 12.698C13.7786 12.7707 13.8794 12.8125 13.9821 12.8125C14.0849 12.8125 14.1857 12.7707 14.2583 12.698C14.331 12.6254 14.3728 12.5246 14.3728 12.4219C14.3728 12.3191 14.331 12.2184 14.2583 12.1457Z"
                  fill="#717171"/>
            <path d="M12.339 12.0312H10.0001C9.78435 12.0312 9.60947 12.2061 9.60947 12.4219C9.60947 12.6376 9.78435 12.8125 10.0001 12.8125H12.339C12.5548 12.8125 12.7297 12.6376 12.7297 12.4219C12.7297 12.2061 12.5548 12.0312 12.339 12.0312Z"
                  fill="#717171"/>
            <path d="M15.6252 14.375H10.0001C9.78435 14.375 9.60947 14.5499 9.60947 14.7656C9.60947 14.9814 9.78435 15.1562 10.0001 15.1562H15.6252C15.8409 15.1562 16.0158 14.9814 16.0158 14.7656C16.0158 14.5499 15.8409 14.375 15.6252 14.375Z"
                  fill="#717171"/>
            <path d="M14.2583 16.3645C14.1857 16.2918 14.0849 16.25 13.9821 16.25C13.8794 16.25 13.7786 16.2918 13.706 16.3645C13.6333 16.4371 13.5915 16.5379 13.5915 16.6406C13.5915 16.7434 13.6333 16.8441 13.706 16.9168C13.7786 16.9895 13.8794 17.0312 13.9821 17.0312C14.0849 17.0312 14.1857 16.9895 14.2583 16.9168C14.331 16.8441 14.3728 16.7434 14.3728 16.6406C14.3728 16.5379 14.331 16.4371 14.2583 16.3645Z"
                  fill="#717171"/>
            <path d="M12.339 16.25H10.0001C9.78435 16.25 9.60947 16.4249 9.60947 16.6406C9.60947 16.8564 9.78435 17.0312 10.0001 17.0312H12.339C12.5548 17.0312 12.7297 16.8564 12.7297 16.6406C12.7297 16.4249 12.5548 16.25 12.339 16.25Z"
                  fill="#717171"/>
            <path d="M16.3766 1.52347H13.393C12.9617 1.1125 12.3787 0.859373 11.7374 0.859373H11.3952C11.1336 0.341484 10.5961 0 9.9999 0C9.4037 0 8.86627 0.341484 8.60463 0.859373H8.26163C7.62026 0.859373 7.03729 1.1125 6.60601 1.52347H3.62332C2.57312 1.52347 1.71871 2.37789 1.71871 3.42808V18.0954C1.71871 19.1456 2.57312 20 3.62332 20H16.3765C17.4267 20 18.2811 19.1456 18.2811 18.0954V3.42808C18.2812 2.37789 17.4268 1.52347 16.3766 1.52347ZM8.26167 1.64062H8.87049C9.0462 1.64062 9.20026 1.52332 9.24702 1.35398C9.34018 1.01676 9.64979 0.781249 9.99994 0.781249C10.3501 0.781249 10.6597 1.01676 10.7528 1.35398C10.7996 1.52332 10.9537 1.64062 11.1294 1.64062H11.7374C12.5852 1.64062 13.2831 2.29492 13.3527 3.12503H6.64628C6.71593 2.29492 7.41386 1.64062 8.26167 1.64062ZM17.4999 18.0954C17.4999 18.7148 16.996 19.2188 16.3766 19.2188H3.62332C3.0039 19.2188 2.49996 18.7148 2.49996 18.0954V3.42808C2.49996 2.80867 3.0039 2.30472 3.62332 2.30472H6.05874C5.93077 2.59816 5.85933 2.92167 5.85933 3.26175V3.51566C5.85933 3.7314 6.03421 3.90628 6.24995 3.90628H13.7491C13.9649 3.90628 14.1397 3.7314 14.1397 3.51566V3.26175C14.1397 2.92171 14.0683 2.59816 13.9403 2.30472H16.3766C16.996 2.30472 17.4999 2.80867 17.4999 3.42808V18.0954Z"
                  fill="#717171"/>
            <path d="M7.51602 5.84366C7.36348 5.69112 7.11614 5.69112 6.9636 5.84362L5.29321 7.51405L4.77864 6.99944C4.6261 6.84694 4.37876 6.84694 4.22618 6.99944C4.07364 7.15198 4.07364 7.39932 4.22618 7.5519L5.017 8.34272C5.09329 8.41901 5.19325 8.45713 5.29321 8.45713C5.39317 8.45713 5.49317 8.41901 5.56942 8.34272L7.51602 6.39612C7.66856 6.24358 7.66856 5.99623 7.51602 5.84366Z"
                  fill="#717171"/>
            <path d="M6.56244 14.375H4.68744C4.4717 14.375 4.29682 14.5499 4.29682 14.7656V16.6406C4.29682 16.8564 4.4717 17.0312 4.68744 17.0312H6.56244C6.77818 17.0312 6.95307 16.8564 6.95307 16.6406V14.7656C6.95307 14.5499 6.77818 14.375 6.56244 14.375ZM6.17182 16.25H5.07807V15.1562H6.17182V16.25Z"
                  fill="#717171"/>
            <path d="M6.56244 10.1562H4.68744C4.4717 10.1562 4.29682 10.3311 4.29682 10.5469V12.4219C4.29682 12.6376 4.4717 12.8125 4.68744 12.8125H6.56244C6.77818 12.8125 6.95307 12.6376 6.95307 12.4219V10.5469C6.95307 10.3311 6.77818 10.1562 6.56244 10.1562ZM6.17182 12.0312H5.07807V10.9375H6.17182V12.0312Z"
                  fill="#717171"/>
        </g>
    </symbol>

    <symbol id="add-user" viewBox="0 0 18 18">
        <g>
            <g clip-path="url(#clip0)">
                <path d="M14.1 10.2009C12.7242 10.2009 11.5125 10.9171 10.8181 11.9962L9.71334 11.3937C9.45835 11.2545 9.29993 10.9878 9.29993 10.6974V9.70503C9.50092 9.44192 10.076 8.62173 10.3508 7.53365C10.6343 7.30626 10.7999 6.96606 10.7999 6.60096V5.40098C10.7999 5.11207 10.6919 4.83219 10.4999 4.61348V3.01779C10.5167 2.8528 10.5827 1.87029 9.87231 1.05998C9.25613 0.357072 8.25626 0.000976562 6.89997 0.000976562C5.54397 0.000976562 4.54378 0.357072 3.92788 1.05998C3.2172 1.87029 3.28319 2.85276 3.29999 3.01779V4.61348C3.10801 4.83219 3.00001 5.11207 3.00001 5.40098V6.60096C3.00001 6.96606 3.16591 7.30626 3.44909 7.53365C3.7239 8.62173 4.29927 9.44196 4.49997 9.70503V10.6974C4.49997 10.9878 4.34156 11.2545 4.08689 11.3937L1.41032 12.8535C0.540595 13.3281 0 14.2383 0 15.2295V16.5009C0 16.6665 0.134402 16.8009 0.299987 16.8009H11.2885C11.9987 17.54 12.9965 18.0008 14.1 18.0008C16.2504 18.0008 18 16.2513 18 14.1009C18 11.9505 16.2504 10.2009 14.1 10.2009ZM0.600008 16.2009V15.2295C0.600008 14.4582 1.02062 13.7496 1.69772 13.3803L4.37429 11.9202C4.8219 11.676 5.09998 11.2074 5.09998 10.6974V9.60093C5.09998 9.53104 5.07537 9.46263 5.03037 9.40863C5.02289 9.39994 4.28608 8.50382 4.00737 7.28882C3.98997 7.21264 3.94317 7.14634 3.87778 7.10401C3.7038 6.99151 3.59998 6.80371 3.59998 6.60093V5.40094C3.59998 5.23265 3.67138 5.07575 3.80128 4.95844C3.86428 4.90173 3.89997 4.82073 3.89997 4.73583V3.00098C3.89997 2.9878 3.89905 2.9749 3.89726 2.96168C3.89634 2.95328 3.79436 2.12229 4.37876 1.4557C4.87614 0.888386 5.72425 0.60102 6.89994 0.60102C8.07144 0.60102 8.91803 0.886628 9.41602 1.44972C9.99982 2.11002 9.90353 2.95451 9.90261 2.96171C9.90082 2.9749 9.89991 2.9878 9.89991 3.00102V4.7359C9.89991 4.8208 9.93591 4.9018 9.99891 4.95851C10.1285 5.07579 10.1999 5.23269 10.1999 5.40101V6.601C10.1999 6.80381 10.0964 6.99158 9.92241 7.10408C9.8567 7.14637 9.81023 7.21268 9.79282 7.28889C9.51382 8.50389 8.77702 9.39998 8.76954 9.4087C8.72485 9.4627 8.69993 9.53111 8.69993 9.601V10.6975C8.69993 11.2075 8.97833 11.6761 9.42593 11.9203L10.5333 12.5244C10.3192 13.0068 10.2 13.5402 10.2 14.101C10.2 14.8736 10.4259 15.5944 10.815 16.201H0.600008V16.2009ZM14.1 17.4009C13.1375 17.4009 12.27 16.9865 11.6662 16.327C11.6535 16.3091 11.6388 16.2928 11.6226 16.2782C11.1109 15.6967 10.8 14.9345 10.8 14.1009C10.8 12.2814 12.2805 10.8009 14.1 10.8009C15.9195 10.8009 17.4 12.2814 17.4 14.1009C17.4 15.9204 15.9195 17.4009 14.1 17.4009Z"
                      fill="#717171"/>
                <path d="M15.9001 13.8H14.4001V12.3C14.4001 12.1344 14.2657 12 14.1001 12C13.9345 12 13.8001 12.1344 13.8001 12.3V13.8H12.3001C12.1345 13.8 12.0001 13.9344 12.0001 14.1C12.0001 14.2656 12.1345 14.4 12.3001 14.4H13.8001V15.9C13.8001 16.0655 13.9345 16.1999 14.1001 16.1999C14.2657 16.1999 14.4001 16.0655 14.4001 15.9V14.4H15.9001C16.0657 14.4 16.2001 14.2656 16.2001 14.1C16.2001 13.9344 16.0657 13.8 15.9001 13.8Z"
                      fill="#717171"/>
            </g>
            <defs>
                <clipPath id="clip0">
                    <rect width="18" height="18" fill="white"/>
                </clipPath>
            </defs>

        </g>
    </symbol>

    <symbol id="yes" viewBox="0 0 18 18">
        <g>
            <g clip-path="url(#clip0)">
                <path d="M16.8109 9.54279C16.6061 9.54279 16.4132 9.59482 16.2448 9.6864C16.0725 9.24182 15.6405 8.92563 15.1359 8.92563C14.8095 8.92563 14.5134 9.05788 14.2984 9.27153C14.0833 9.05788 13.7873 8.92563 13.4609 8.92563C13.2878 8.92563 13.1234 8.9631 12.9749 9.02987V8.01389C12.9858 8.01491 12.9967 8.01554 13.0078 8.01554H15.9258C16.5268 8.01554 17.0156 7.52666 17.0156 6.9257V5.41396C17.0156 5.21983 16.8582 5.0624 16.6641 5.0624C16.4699 5.0624 16.3125 5.21983 16.3125 5.41396V6.92574C16.3125 7.13896 16.139 7.31246 15.9258 7.31246H13.0078C12.9967 7.31246 12.9858 7.31312 12.9749 7.31411V6.56128C12.9749 5.90565 12.4415 5.37223 11.7859 5.37223C11.1302 5.37223 10.5968 5.90565 10.5968 6.56128V7.31246H10.0899C9.87667 7.31246 9.70318 7.13896 9.70318 6.92574V1.08984C9.70318 0.876616 9.87667 0.703121 10.0899 0.703121H15.9258C16.139 0.703121 16.3125 0.876616 16.3125 1.08984V2.60155C16.3125 2.79568 16.4699 2.95311 16.6641 2.95311C16.8582 2.95311 17.0156 2.79568 17.0156 2.60155V1.08984C17.0156 0.48888 16.5268 0 15.9258 0H10.0899C9.48894 0 9.00006 0.48888 9.00006 1.08984V6.92574C9.00006 7.5267 9.48894 8.01558 10.0899 8.01558H10.5968V10.9974L9.38526 12.7735C8.97875 13.3694 8.9166 14.1452 9.22291 14.7982L10.6301 17.7976C10.6899 17.9252 10.8165 18 10.9486 18C10.9986 18 11.0494 17.9892 11.0977 17.9666C11.2735 17.8842 11.3491 17.6748 11.2667 17.499L9.85952 14.4996C9.65828 14.0707 9.69913 13.5611 9.96611 13.1697L10.5968 12.2452V12.9098C10.5968 13.104 10.7542 13.2614 10.9484 13.2614C11.1425 13.2614 11.2999 13.104 11.2999 12.9098V6.56131C11.2999 6.29335 11.5179 6.07539 11.7859 6.07539C12.0538 6.07539 12.2718 6.29335 12.2718 6.56131V11.7541C12.2718 11.9482 12.4292 12.1057 12.6234 12.1057C12.8175 12.1057 12.9749 11.9482 12.9749 11.7541V10.1147C12.9749 9.84675 13.1929 9.62878 13.4609 9.62878C13.7288 9.62878 13.9468 9.84675 13.9468 10.1147V11.7541C13.9468 11.9482 14.1042 12.1057 14.2984 12.1057C14.4925 12.1057 14.6499 11.9482 14.6499 11.7541V10.1147C14.6499 9.84675 14.8679 9.62878 15.1359 9.62878C15.4038 9.62878 15.6218 9.84675 15.6218 10.1147V11.7541C15.6218 11.9482 15.7792 12.1057 15.9734 12.1057C16.1675 12.1057 16.3249 11.9482 16.3249 11.7541V10.7319C16.3249 10.4639 16.5429 10.2459 16.8109 10.2459C17.0788 10.2459 17.2968 10.4639 17.2968 10.7319V13.6709C17.2968 14.4538 17.1781 15.2295 16.9438 15.9764L16.4525 17.5431C16.3944 17.7284 16.4975 17.9257 16.6827 17.9838C16.7178 17.9948 16.7532 18 16.788 18C16.9376 18 17.0763 17.9038 17.1234 17.7535L17.6147 16.1868C17.8703 15.3716 17.9999 14.5252 17.9999 13.6709V10.7318C17.9999 10.0762 17.4665 9.54279 16.8109 9.54279Z"
                      fill="#717171"/>
                <path d="M6.92664 0H1.09073C0.489777 0 0.000897408 0.48888 0.000897408 1.08984V6.92574C0.000897408 7.5267 0.489777 8.01558 1.09073 8.01558H2.60245C2.79658 8.01558 2.95401 7.85815 2.95401 7.66402C2.95401 7.46989 2.79658 7.31246 2.60245 7.31246H1.09073C0.877513 7.31246 0.704018 7.13896 0.704018 6.92574V1.08984C0.704018 0.876616 0.877513 0.703121 1.09073 0.703121H6.92664C7.13986 0.703121 7.31336 0.876616 7.31336 1.08984V6.92574C7.31336 7.13896 7.13986 7.31246 6.92664 7.31246H5.41493C5.2208 7.31246 5.06337 7.46989 5.06337 7.66402C5.06337 7.85815 5.2208 8.01558 5.41493 8.01558H6.92664C7.5276 8.01558 8.01648 7.5267 8.01648 6.92574V1.08984C8.01648 0.48888 7.5276 0 6.92664 0Z"
                      fill="#717171"/>
                <path d="M5.49112 5.49109C5.62841 5.3538 5.62841 5.13119 5.49112 4.99387L4.50503 4.00785L5.49112 3.02178C5.62841 2.8845 5.62841 2.66189 5.49112 2.52457C5.35384 2.38735 5.1313 2.38728 4.99391 2.52457L4.00781 3.51063L3.02175 2.52457C2.88443 2.38732 2.66189 2.38732 2.52453 2.52457C2.38725 2.66185 2.38725 2.88446 2.52453 3.02178L3.51063 4.00785L2.52453 4.99391C2.38725 5.13119 2.38725 5.3538 2.52453 5.49112C2.59319 5.55975 2.68316 5.5941 2.77312 5.5941C2.86309 5.5941 2.95305 5.55975 3.02171 5.49112L4.00781 4.50506L4.99391 5.49112C5.06257 5.55975 5.15253 5.5941 5.2425 5.5941C5.33246 5.5941 5.42246 5.55975 5.49112 5.49109Z"
                      fill="#717171"/>
                <path d="M14.57 2.29386L12.818 4.0458L12.0825 3.31026C11.9452 3.17301 11.7226 3.17301 11.5853 3.31026C11.448 3.44754 11.448 3.67015 11.5853 3.80747L12.5694 4.7916C12.6381 4.86023 12.728 4.89457 12.818 4.89457C12.908 4.89457 12.9979 4.86023 13.0666 4.7916L15.0671 2.79107C15.2044 2.65379 15.2044 2.43118 15.0671 2.29386C14.9298 2.15661 14.7073 2.15661 14.57 2.29386Z"
                      fill="#717171"/>
                <path d="M4.00782 7.31226C3.91536 7.31226 3.82465 7.34987 3.75926 7.4153C3.69387 7.48065 3.65625 7.57136 3.65625 7.66382C3.65625 7.75628 3.69384 7.84698 3.75926 7.91237C3.82465 7.97811 3.91536 8.01538 4.00782 8.01538C4.10028 8.01538 4.19098 7.97811 4.25634 7.91237C4.32173 7.84698 4.35938 7.75628 4.35938 7.66382C4.35938 7.57136 4.32176 7.48065 4.25634 7.4153C4.19098 7.34987 4.10028 7.31226 4.00782 7.31226Z"
                      fill="#717171"/>
                <path d="M16.664 3.65601C16.5716 3.65601 16.4809 3.69362 16.4155 3.75905C16.3501 3.8244 16.3125 3.91511 16.3125 4.00757C16.3125 4.10042 16.35 4.19073 16.4155 4.25612C16.4809 4.32187 16.5716 4.35913 16.664 4.35913C16.7565 4.35913 16.8472 4.32187 16.9125 4.25612C16.9779 4.19073 17.0156 4.10003 17.0156 4.00757C17.0156 3.91511 16.978 3.8244 16.9125 3.75905C16.8472 3.69362 16.7565 3.65601 16.664 3.65601Z"
                      fill="#717171"/>
            </g>
            <defs>
                <clipPath id="clip0">
                    <rect width="18" height="18" fill="white"/>
                </clipPath>
            </defs>
        </g>
    </symbol>

    <symbol id="registration" viewBox="0 0 18 18">
        <g>
            <path d="M18 13.5V5.1C17.999 4.272 17.328 3.60098 16.5 3.6H13.2V0H12.6V6.9C12.6 7.06568 12.7343 7.2 12.9 7.2H13.917L9 10.1502L4.083 7.2H5.1C5.26568 7.2 5.4 7.06568 5.4 6.9V0H4.8V3.6H1.5C0.672 3.60098 0.000975 4.272 0 5.1V13.5C0.000975 14.328 0.672 14.999 1.5 15H6.4146L5.8146 16.2H0.3C0.134325 16.2 0 16.3343 0 16.5C0 18 1.5807 18 2.1 18H15.9C16.4193 18 18 18 18 16.5C18 16.3343 17.8657 16.2 17.7 16.2H12.1854L11.5854 15H16.5C17.328 14.999 17.999 14.328 18 13.5ZM4.8 6.6H3C2.83433 6.60004 2.70004 6.7344 2.70011 6.90011C2.70015 7.00538 2.75531 7.10288 2.84554 7.15714L8.84554 10.7571C8.9406 10.8142 9.05948 10.8142 9.15454 10.7571L15.1545 7.15714C15.2965 7.07175 15.3424 6.88744 15.2571 6.74543C15.2028 6.65524 15.1053 6.60004 15 6.6H13.2V5.4H16.2V12.6H1.8V5.4H4.8V6.6ZM17.3637 16.8C17.259 17.1693 16.8969 17.4 15.9 17.4H2.1C1.1031 17.4 0.741 17.1693 0.6363 16.8H17.3637ZM6.4854 16.2L7.0854 15H10.9146L11.5146 16.2H6.4854ZM1.5 14.4C1.00294 14.4 0.6 13.9971 0.6 13.5V5.1C0.6 4.60294 1.00294 4.2 1.5 4.2H4.8V4.8H1.5C1.33433 4.8 1.2 4.93433 1.2 5.1V12.9C1.2 13.0657 1.33433 13.2 1.5 13.2H16.5C16.6657 13.2 16.8 13.0657 16.8 12.9V5.1C16.8 4.93433 16.6657 4.8 16.5 4.8H13.2V4.2H16.5C16.9971 4.2 17.4 4.60294 17.4 5.1V13.5C17.4 13.9971 16.9971 14.4 16.5 14.4H1.5Z"
                  fill="#717171"/>
            <path d="M10.3089 4.5139C10.7769 4.14565 11.0649 3.59462 11.1 3.0001C11.1 1.0165 9.9579 0.600098 9 0.600098C8.0421 0.600098 6.9 1.0165 6.9 3.0001C6.93484 3.59492 7.22284 4.14632 7.6911 4.5148C6.89588 4.61278 6.29884 5.28883 6.3 6.0901V7.2001H6.9V6.0901C6.9 5.54335 7.34325 5.1001 7.89 5.1001H10.11C10.6568 5.1001 11.1 5.54335 11.1 6.0901V7.2001H11.7V6.0901C11.7016 5.2885 11.1045 4.61192 10.3089 4.5139ZM7.5156 2.6824C7.5969 1.6771 8.07 1.2001 9 1.2001C9.8514 1.2001 10.32 1.6027 10.4541 2.4427L9.4545 1.8427C9.31242 1.75746 9.12814 1.80355 9.0429 1.94564C9.03165 1.96439 9.0225 1.98426 9.0156 2.005C8.8638 2.4604 8.0442 2.6326 7.5156 2.6824ZM9 4.5001C8.33089 4.38613 7.77428 3.92215 7.5417 3.2845V3.2836C8.0553 3.2413 8.9817 3.0859 9.4137 2.5174L10.4859 3.1606C10.3656 3.8962 9.4605 4.5001 9 4.5001Z"
                  fill="#717171"/>
            <path d="M15 10.8V10.2H14.4V10.8H13.8V11.4H14.4V12H15V11.4H15.6V10.8H15Z" fill="#717171"/>
        </g>
    </symbol>

    <symbol id="user2" viewBox="0 0 18 18">
        <g>
            <path d="M6.97136 8.23764C9.09347 8.23764 10.8138 6.51741 10.8138 4.39519C10.8138 2.27308 9.09347 0.552734 6.97136 0.552734C4.84925 0.552734 3.12891 2.27308 3.12891 4.39519C3.13095 6.51661 4.85005 8.2356 6.97136 8.23764ZM6.97136 1.27977C8.69205 1.27977 10.0868 2.67473 10.0868 4.39519C10.0868 6.11588 8.69205 7.51061 6.97136 7.51061C5.25079 7.51061 3.85605 6.11588 3.85605 4.39519C3.85798 2.67541 5.25158 1.28181 6.97136 1.27977Z"
                  fill="#717171"/>
            <path d="M16.957 10.3862L13.8234 8.71766C13.7155 8.65879 13.5848 8.66015 13.478 8.72118L10.6098 10.2916C9.5592 9.51004 8.3013 9.10294 6.96374 9.10294C5.29874 9.10658 3.75375 9.75371 2.6086 10.9315C1.4489 12.1202 0.812672 13.7452 0.816423 15.5082C0.816991 15.7088 0.979399 15.8713 1.17988 15.8718L11.2932 15.8536C11.7686 16.4439 12.3798 16.9104 13.0745 17.2133L13.4962 17.3986C13.542 17.4191 13.5917 17.429 13.6417 17.4277C13.6915 17.4268 13.7408 17.417 13.7871 17.3986L14.2633 17.1914C16.0129 16.4574 17.1509 14.7447 17.1497 12.8472V10.7096C17.1498 10.5746 17.0758 10.4504 16.957 10.3862ZM1.55436 15.1412C1.63062 13.7124 2.18684 12.4075 3.13208 11.4368C4.13892 10.4007 5.50217 9.82997 6.96726 9.82997H6.97817C8.18152 9.82997 9.30849 10.2081 10.2427 10.9242V12.8908C10.2433 13.6716 10.4381 14.4399 10.8097 15.1265L1.55436 15.1412ZM16.4226 12.8472C16.4233 14.4538 15.4584 15.9033 13.9761 16.5226H13.9724L13.6417 16.6643L13.3653 16.5443C11.9115 15.9091 10.9713 14.4739 10.9697 12.8873V10.9206L13.6561 9.44833L16.4226 10.9242V12.8472Z"
                  fill="#717171"/>
            <path d="M12.6602 12.6545C12.5298 12.502 12.3003 12.4842 12.1477 12.6147C11.9952 12.7451 11.9773 12.9746 12.1078 13.1271L12.9329 14.0904C13.0022 14.171 13.103 14.2174 13.2092 14.2177C13.2925 14.2184 13.3734 14.1902 13.4382 14.1377L15.3577 12.5783C15.5133 12.4508 15.536 12.2213 15.4085 12.0656C15.2811 11.91 15.0516 11.8873 14.896 12.0148L13.2528 13.3526L12.6602 12.6545Z"
                  fill="#717171"/>

        </g>
    </symbol>

    <symbol id="pass" viewBox="0 0 20 20">
        <g>
            <path d="M15.8594 7.69562V5.85938C15.8594 2.62848 13.2309 0 10 0C6.7691 0 4.14062 2.62848 4.14062 5.85938V7.69562C3.25012 7.87704 2.57812 8.66623 2.57812 9.60938V11.8269C2.57812 12.0427 2.75299 12.2176 2.96875 12.2176C3.18451 12.2176 3.35938 12.0427 3.35938 11.8269V9.60938C3.35938 8.96317 3.88504 8.4375 4.53125 8.4375H15.4688C16.115 8.4375 16.6406 8.96317 16.6406 9.60938V18.0469C16.6406 18.5561 16.3141 18.9903 15.8594 19.1516V16.7969C15.8594 16.5811 15.6845 16.4062 15.4688 16.4062C15.253 16.4062 15.0781 16.5811 15.0781 16.7969V19.2188H4.53125C3.88504 19.2188 3.35938 18.6931 3.35938 18.0469V14.9609C3.35938 14.7452 3.18451 14.5703 2.96875 14.5703C2.75299 14.5703 2.57812 14.7452 2.57812 14.9609V18.0469C2.57812 19.1238 3.45428 20 4.53125 20H15.4688C16.5457 20 17.4219 19.1238 17.4219 18.0469V9.60938C17.4219 8.66623 16.7499 7.87704 15.8594 7.69562ZM7.03125 7.65625V5.85938C7.03125 4.22241 8.36304 2.89062 10 2.89062C11.637 2.89062 12.9688 4.22241 12.9688 5.85938V7.65625H7.03125ZM13.75 7.65625V5.85938C13.75 3.79166 12.0677 2.10938 10 2.10938C7.93228 2.10938 6.25 3.79166 6.25 5.85938V7.65625H4.92188V5.85938C4.92188 3.05923 7.19986 0.78125 10 0.78125C12.8001 0.78125 15.0781 3.05923 15.0781 5.85938V7.65625H13.75Z"
                  fill="#717171"/>
            <path d="M2.96875 13.7692C3.07144 13.7692 3.1723 13.7275 3.24493 13.6547C3.31757 13.5821 3.35938 13.4814 3.35938 13.3785C3.35938 13.2758 3.31757 13.175 3.24493 13.1025C3.1723 13.0297 3.07144 12.9879 2.96875 12.9879C2.86606 12.9879 2.7652 13.0297 2.69257 13.1025C2.61993 13.175 2.57812 13.2758 2.57812 13.3785C2.57812 13.4814 2.61993 13.5821 2.69257 13.6547C2.7652 13.7275 2.86606 13.7692 2.96875 13.7692Z"
                  fill="#717171"/>
            <path d="M9.99985 17.8906C10.6461 17.8906 11.1717 17.3649 11.1717 16.7187V14.6444C11.7586 14.2559 12.1143 13.6028 12.1143 12.8872C12.1143 11.7242 11.1679 10.7778 10.0049 10.7778C8.84171 10.7778 7.89551 11.7242 7.89551 12.8872C7.89551 13.5977 8.24722 14.2483 8.82797 14.6377V16.7187C8.82797 17.3649 9.35364 17.8906 9.99985 17.8906ZM8.67676 12.8872C8.67676 12.1548 9.27246 11.5591 10.0049 11.5591C10.7372 11.5591 11.333 12.1548 11.333 12.8872C11.333 13.3901 11.0538 13.8441 10.6044 14.0722C10.4732 14.1387 10.3905 14.2733 10.3905 14.4206V16.7187C10.3905 16.9341 10.2153 17.1093 9.99985 17.1093C9.78439 17.1093 9.60922 16.9341 9.60922 16.7187V14.4154C9.60922 14.2692 9.52759 14.1352 9.39758 14.0682C8.95294 13.839 8.67676 13.3865 8.67676 12.8872Z"
                  fill="#717171"/>
            <path d="M15.4688 15.5859C15.5719 15.5859 15.6723 15.5441 15.7449 15.4715C15.8176 15.3989 15.8594 15.2985 15.8594 15.1953C15.8594 15.0922 15.8176 14.9918 15.7449 14.9191C15.6723 14.8465 15.5719 14.8047 15.4688 14.8047C15.3661 14.8047 15.2652 14.8465 15.1926 14.9191C15.1199 14.9918 15.0781 15.0926 15.0781 15.1953C15.0781 15.298 15.1199 15.3989 15.1926 15.4715C15.2652 15.5441 15.3661 15.5859 15.4688 15.5859Z"
                  fill="#717171"/>

        </g>
    </symbol>

    <symbol id="computer" viewBox="0 0 20 20">
        <g>
            <g clip-path="url(#clip0)">
                <path d="M19.3939 16.2828H19.0324C18.8951 15.5703 18.2671 15.0303 17.5152 15.0303H16.2627C15.5107 15.0303 14.8827 15.5703 14.7454 16.2828H13.7375V15.6364C13.7375 15.3021 13.4656 15.0303 13.1314 15.0303H12.4402L12.2247 13.7374H17.2021C17.7089 13.7374 18.1213 13.325 18.1213 12.8182V2.798C18.1213 2.29113 17.7089 1.87878 17.2021 1.87878H2.79801C2.29113 1.87878 1.87879 2.29117 1.87879 2.798V12.8182C1.87879 13.325 2.29117 13.7374 2.79801 13.7374H7.77539L7.55992 15.0302H4.36371C4.20191 15.0302 4.07074 15.1614 4.07074 15.3232C4.07074 15.485 4.20191 15.6162 4.36371 15.6162H13.1313C13.1424 15.6162 13.1514 15.6252 13.1514 15.6363V16.2827H2.46473V15.6363C2.46473 15.6252 2.47375 15.6162 2.48488 15.6162H3.11113C3.27293 15.6162 3.4041 15.485 3.4041 15.3232C3.4041 15.1614 3.27293 15.0302 3.11113 15.0302H2.48488C2.15066 15.0302 1.87879 15.3021 1.87879 15.6363V16.2827H0.606094C0.271875 16.2828 0 16.5546 0 16.8889V17.5151C0 17.8493 0.271875 18.1212 0.606094 18.1212H19.3939C19.7281 18.1212 20 17.8493 20 17.5151V16.8889C20 16.5546 19.7281 16.2828 19.3939 16.2828ZM2.46473 12.8182V2.798C2.46473 2.61421 2.61426 2.46472 2.79801 2.46472H17.202C17.3858 2.46472 17.5353 2.61425 17.5353 2.798V12.8182C17.5353 13.0019 17.3857 13.1514 17.202 13.1514H2.79801C2.61422 13.1514 2.46473 13.0019 2.46473 12.8182ZM8.36941 13.7374H11.6306L11.8461 15.0302H8.15391L8.36941 13.7374ZM16.2626 15.6162H17.5151C17.9421 15.6162 18.3046 15.8965 18.4287 16.2827H15.3489C15.4731 15.8965 15.8357 15.6162 16.2626 15.6162ZM19.4141 17.5151C19.4141 17.5262 19.405 17.5353 19.3939 17.5353H0.606094C0.594961 17.5353 0.585938 17.5262 0.585938 17.5151V16.8889C0.585938 16.8777 0.594961 16.8687 0.606094 16.8687H19.3939C19.405 16.8687 19.4141 16.8777 19.4141 16.8889V17.5151Z"
                      fill="#717171"/>
                <path d="M16.5763 3.13123H15.95C15.7882 3.13123 15.657 3.2624 15.657 3.42419C15.657 3.58599 15.7882 3.71716 15.95 3.71716H16.2833V11.8989H3.71777V3.71716H14.6975C14.8593 3.71716 14.9904 3.58599 14.9904 3.42419C14.9904 3.2624 14.8593 3.13123 14.6975 3.13123H3.4248C3.26301 3.13123 3.13184 3.2624 3.13184 3.42419V12.1918C3.13184 12.3536 3.26301 12.4848 3.4248 12.4848H16.5763C16.7381 12.4848 16.8693 12.3536 16.8693 12.1918V3.42419C16.8693 3.2624 16.7381 3.13123 16.5763 3.13123Z"
                      fill="#717171"/>
                <path d="M4.69727 7.80814C4.69727 9.35095 5.95246 10.6061 7.49527 10.6061C9.03809 10.6061 10.2933 9.35095 10.2933 7.80814C10.2933 6.26533 9.03809 5.01013 7.49527 5.01013C5.95246 5.01013 4.69727 6.26533 4.69727 7.80814ZM5.2832 7.80814C5.2832 6.58841 6.27555 5.59607 7.49527 5.59607C7.99973 5.59607 8.465 5.76615 8.83754 6.05154L7.28809 7.60099C7.23312 7.65591 7.20227 7.73044 7.20227 7.80814V10.0002C6.12062 9.85638 5.2832 8.92849 5.2832 7.80814ZM9.70734 7.80814C9.70734 8.92849 8.86992 9.85634 7.78824 10.0002V7.92951L9.25187 6.46587C9.53727 6.83841 9.70734 7.30369 9.70734 7.80814Z"
                      fill="#717171"/>
                <path d="M14.6771 5.3031C14.6771 5.1413 14.546 5.01013 14.3842 5.01013C14.2224 5.01013 14.0912 5.1413 14.0912 5.3031V10.0202H13.4246V6.55564C13.4246 6.39384 13.2935 6.26267 13.1317 6.26267C12.9699 6.26267 12.8387 6.39384 12.8387 6.55564V10.0202H12.1721V7.80814C12.1721 7.64634 12.041 7.51517 11.8792 7.51517C11.7174 7.51517 11.5862 7.64634 11.5862 7.80814V10.0202H11.2529C11.0911 10.0202 10.96 10.1514 10.96 10.3132C10.96 10.475 11.0911 10.6061 11.2529 10.6061H15.0105C15.1723 10.6061 15.3035 10.475 15.3035 10.3132C15.3035 10.1514 15.1723 10.0202 15.0105 10.0202H14.6772V5.3031H14.6771Z"
                      fill="#717171"/>
            </g>
            <defs>
                <clipPath id="clip0">
                    <rect width="20" height="20" fill="white"/>
                </clipPath>
            </defs>

        </g>
    </symbol>

    <symbol id="check" viewBox="0 0 8 9">
        <g>
            <path fill-rule="evenodd" clip-rule="evenodd"
                  d="M3.64609 8.19662C3.64609 8.19662 4.67032 6.04999 5.84912 4.19272C6.75917 2.75918 7.89397 1.50407 7.89397 1.50407L7.65723 0.788661C7.65723 0.788661 6.31142 1.80343 5.22091 3.0503C4.11502 4.31484 3.26478 5.81184 3.26478 5.81184L1.59454 4.11255L0.910638 4.9026L3.64609 8.19662Z"
                  fill="#717171"/>
        </g>
    </symbol>

    <symbol id="close" viewBox="0 0 22 22">
        <g>
            <path d="M8.57696 10.9993L0.351463 2.77343C0.125204 2.54699 0.000358582 2.24489 0 1.92276C0 1.60046 0.124846 1.298 0.351463 1.07192L1.07228 0.351285C1.29889 0.124309 1.60099 0 1.92348 0C2.24543 0 2.54753 0.124309 2.77415 0.351285L10.9996 8.5766L19.2255 0.351285C19.4518 0.124309 19.754 0 20.0763 0C20.3983 0 20.7006 0.124309 20.9268 0.351285L21.648 1.07192C22.1173 1.54125 22.1173 2.30463 21.648 2.77343L13.4223 10.9993L21.648 19.2248C21.8744 19.4516 21.9991 19.7537 21.9991 20.0758C21.9991 20.3979 21.8744 20.7 21.648 20.9267L20.927 21.6473C20.7007 21.8741 20.3983 21.9986 20.0765 21.9986C19.7542 21.9986 19.4519 21.8741 19.2257 21.6473L10.9998 13.4218L2.77433 21.6473C2.54771 21.8741 2.24561 21.9986 1.92366 21.9986H1.9233C1.60117 21.9986 1.29907 21.8741 1.07246 21.6473L0.351645 20.9267C0.125383 20.7002 0.000537872 20.3979 0.000537872 20.0758C0.000537872 19.7537 0.125383 19.4516 0.351645 19.225L8.57696 10.9993Z"
                  fill="#BEBEBE"/>

        </g>
    </symbol>
</svg>